#N canvas 3346 400 721 856 12;
#X obj 99 30 inlet;
#X obj 99 89 list fromsymbol;
#X obj 269 86 list fromsymbol;
#X obj 269 111 print;
#X obj 163 114 list length;
#X obj 163 139 until;
#X obj 99 200 list split 1;
#X obj 142 226 list;
#X obj 99 55 symbol;
#X text 195 202 outputs list reverse;
#X obj 168 253 sel 47;
#X obj 129 421 list;
#X msg 269 61 list hello;
#X obj 99 377 list append;
#X obj 46 686 list tosymbol;
#X obj 330 698 list tosymbol;
#X obj 159 57 s \$0-start;
#X obj 155 346 r \$0-start;
#X obj 208 138 s \$0-len;
#X obj 46 621 list store;
#X obj 99 306 spigot 1;
#X obj 237 248 r \$0-start;
#X msg 237 273 1;
#X obj 237 298 tgl 15 0 empty empty empty 17 7 0 10 -262144 -1 -1 1
1;
#X msg 168 278 0;
#X obj 371 284 - 1;
#X obj 371 309 * -1;
#X obj 330 615 list store;
#X obj 218 769 pack s s;
#X obj 218 794 outlet;
#X obj 422 441 list;
#X obj 389 407 list append;
#X obj 445 376 r \$0-start;
#X obj 510 59 r \$0-start;
#X obj 510 139 s \$0-bangout;
#X obj 209 564 r \$0-bangout;
#X obj 159 37 bng 15 250 50 0 empty empty empty 17 7 0 10 -262144 -1
-1;
#X obj 244 346 spigot 1;
#X obj 209 589 t b b;
#X obj 510 114 spigot 0;
#X msg 577 111 1;
#X obj 501 183 loadbang;
#X obj 501 208 s \$0-start;
#X obj 510 84 t b b;
#X connect 0 0 8 0;
#X connect 0 0 36 0;
#X connect 1 0 4 0;
#X connect 1 0 6 0;
#X connect 2 0 3 0;
#X connect 4 0 5 0;
#X connect 4 0 18 0;
#X connect 5 0 6 0;
#X connect 6 0 10 0;
#X connect 6 0 20 0;
#X connect 6 0 37 0;
#X connect 6 1 7 0;
#X connect 7 0 6 0;
#X connect 8 0 1 0;
#X connect 10 0 24 0;
#X connect 11 0 13 1;
#X connect 12 0 2 0;
#X connect 13 0 11 0;
#X connect 13 0 19 1;
#X connect 14 0 28 0;
#X connect 15 0 28 1;
#X connect 17 0 13 1;
#X connect 17 0 11 1;
#X connect 19 0 14 0;
#X connect 20 0 13 0;
#X connect 21 0 22 0;
#X connect 22 0 23 0;
#X connect 23 0 20 1;
#X connect 23 0 25 0;
#X connect 24 0 23 0;
#X connect 25 0 26 0;
#X connect 26 0 37 1;
#X connect 27 0 15 0;
#X connect 28 0 29 0;
#X connect 30 0 31 1;
#X connect 31 0 30 0;
#X connect 31 0 27 1;
#X connect 32 0 31 1;
#X connect 32 0 30 1;
#X connect 33 0 43 0;
#X connect 35 0 38 0;
#X connect 36 0 16 0;
#X connect 37 0 31 0;
#X connect 38 0 19 0;
#X connect 38 1 27 0;
#X connect 39 0 34 0;
#X connect 40 0 39 1;
#X connect 41 0 42 0;
#X connect 43 0 40 0;
#X connect 43 1 39 0;
