#N canvas 703 185 502 405 12;
#X obj 159 235 - 1;
#X obj 159 260 * -1;
#X obj 107 314 outlet;
#X text 20 341 Outputs its input left if a project is open and right
if no project is open.;
#X obj 107 289 spigot 1;
#X obj 59 78 t b b;
#X obj 59 108 del 1;
#X obj 59 133 t b b;
#X obj 91 186 f;
#X msg 126 182 1;
#X msg 59 158 0;
#X obj 123 103 s project-request;
#X obj 125 156 r project-response;
#X obj 59 59 bng 15 250 50 0 empty empty empty 17 7 0 10 -262144 -1
-1;
#X obj 91 211 tgl 15 0 empty empty empty 17 7 0 10 -262144 -1 -1 1
1;
#X obj 16 10 inlet;
#X obj 16 35 t a b;
#X obj 16 313 outlet;
#X obj 16 288 spigot 0;
#X obj 22 243 list;
#X obj 91 231 t b f;
#X connect 0 0 1 0;
#X connect 1 0 4 1;
#X connect 4 0 2 0;
#X connect 5 0 6 0;
#X connect 5 1 11 0;
#X connect 6 0 7 0;
#X connect 7 0 10 0;
#X connect 7 1 8 0;
#X connect 8 0 14 0;
#X connect 9 0 8 1;
#X connect 10 0 8 1;
#X connect 12 0 9 0;
#X connect 13 0 5 0;
#X connect 14 0 20 0;
#X connect 15 0 16 0;
#X connect 16 0 19 1;
#X connect 16 1 13 0;
#X connect 18 0 17 0;
#X connect 19 0 18 0;
#X connect 19 0 4 0;
#X connect 20 0 19 0;
#X connect 20 1 0 0;
#X connect 20 1 18 1;
