#N canvas 335 338 1390 742 12;
#X obj 1077 44 r get-active-items-start;
#X obj 1262 43 r get-active-items;
#X obj 1062 128 r get-active-items-end;
#X msg 1077 69 0;
#X obj 1262 138 tgl 15 0 empty empty empty 17 7 0 10 -262144 -1 -1
0 1;
#X obj 1262 71 select \$1;
#X msg 1262 96 1;
#X obj 1244 161 f;
#X obj 188 680 outlet;
#X text 616 19 ADD ITEM TO TIMELINE;
#X obj 623 68 route add;
#X obj 738 277 pointer;
#X obj 624 347 t b pointer;
#X msg 751 242 traverse pd-main-win;
#X obj 624 415 set -symbol item name;
#X obj 624 385 symbol \$1;
#X obj 623 121 sel 0;
#X floatatom 623 171 5 0 0 0 - - -;
#X obj 623 200 t f b b;
#X obj 623 323 append item len x y;
#X obj 623 94 unpack f f f;
#X text 666 123 len;
#X obj 622 294 pack f f f;
#X obj 634 535 loadbang;
#X obj 634 560 symbol \$1;
#X text 634 504 INITS;
#X obj 1262 319 r panda;
#X obj 1262 344 route play;
#X obj 1262 369 tgl 15 0 empty empty empty 17 7 0 10 -262144 -1 -1
0 1;
#X msg 634 585 \; panda item-name symbol \$1 \; new-item-created bang
\;;
#X obj 623 43 r itemmaker-\$1;
#X msg 623 146 1;
#X obj 1308 117 bng 15 250 50 0 empty empty empty 17 7 0 10 -262144
-1 -1;
#X obj 1244 426 &&;
#X obj 1262 389 t b f;
#X obj 1244 281 ||;
#X obj 1276 187 r panda;
#X obj 1276 212 route \$1-always-active;
#X obj 1244 451 change;
#X text 1080 450 SHOULD BECOME OBSOLETE;
#X obj 1276 237 tgl 15 0 empty empty empty 17 7 0 10 -262144 -1 -1
0 1;
#X obj 1276 257 t b f;
#X obj 188 97 r \$1-active-items;
#X obj 188 122 unpack f f;
#X msg 41 175 0;
#X obj 188 267 tgl 15 0 empty empty empty 17 7 0 10 -262144 -1 -1 0
1;
#X obj 227 173 ==;
#X obj 259 148 r panda;
#X obj 259 173 route timeline-position;
#X msg 227 223 1;
#X text 324 218 no current? -> 0;
#X text 324 242 start == pos -> 1;
#X text 325 264 else -> 1 \, if 0;
#X obj 212 282 == 0;
#X obj 227 198 sel 1 0;
#X obj 250 293 spigot;
#X msg 250 318 1;
#X obj 188 633 tgl 30 0 empty empty ACTIVE? 32 15 0 10 -262144 -258113
-1 0 1;
#X obj 206 473 r panda;
#X obj 206 498 route play;
#X obj 206 522 tgl 15 0 empty empty empty 17 7 0 10 -262144 -1 -1 0
1;
#X obj 188 580 &&;
#X obj 206 543 t b f;
#X obj 188 445 ||;
#X obj 220 351 r panda;
#X obj 220 376 route \$1-always-active;
#X obj 220 401 tgl 15 0 empty empty empty 17 7 0 10 -262144 -1 -1 0
1;
#X obj 220 421 t b f;
#X obj 59 66 r get-active-items-start;
#X obj 41 119 f;
#X obj 41 41 r get-active-items-end;
#X msg 59 91 0;
#X text 42 19 any items active?;
#X msg 82 124 1;
#X obj 41 144 sel 0;
#X text 266 122 <-- start and end of item;
#X obj 41 200 spigot 1;
#X text 1082 13 ACTIVE? OLD;
#X obj 281 526 r panda;
#X obj 281 551 route \$1-active;
#X obj 281 576 tgl 15 0 empty empty empty 17 7 0 10 -262144 -1 -1 0
1;
#X obj 281 596 pipe 1;
#N canvas 48 96 450 300 set-items-border-color 0;
#X obj 30 39 inlet;
#X obj 34 218 set item border-color;
#X obj 122 114 loopitems-by-name \$1;
#X obj 30 64 t b f;
#X obj 33 173 f;
#X obj 122 139 t b a;
#X obj 59 128 * 509;
#X connect 0 0 3 0;
#X connect 2 0 5 0;
#X connect 3 0 2 0;
#X connect 3 1 6 0;
#X connect 4 0 1 0;
#X connect 5 0 4 0;
#X connect 5 1 1 1;
#X connect 6 0 4 1;
#X restore 287 664 pd set-items-border-color;
#X connect 0 0 3 0;
#X connect 1 0 5 0;
#X connect 2 0 7 0;
#X connect 3 0 4 0;
#X connect 4 0 7 1;
#X connect 5 0 6 0;
#X connect 6 0 4 0;
#X connect 7 0 35 0;
#X connect 10 0 20 0;
#X connect 11 0 19 3;
#X connect 12 0 15 0;
#X connect 12 1 14 1;
#X connect 13 0 11 0;
#X connect 15 0 14 0;
#X connect 16 0 31 0;
#X connect 16 1 17 0;
#X connect 17 0 18 0;
#X connect 18 0 22 0;
#X connect 18 1 11 0;
#X connect 18 2 13 0;
#X connect 19 0 12 0;
#X connect 20 0 16 0;
#X connect 20 1 22 1;
#X connect 20 2 22 2;
#X connect 22 0 19 0;
#X connect 23 0 24 0;
#X connect 24 0 29 0;
#X connect 26 0 27 0;
#X connect 27 0 28 0;
#X connect 28 0 34 0;
#X connect 30 0 10 0;
#X connect 31 0 17 0;
#X connect 32 0 4 0;
#X connect 33 0 38 0;
#X connect 34 0 33 0;
#X connect 34 1 33 1;
#X connect 35 0 33 0;
#X connect 36 0 37 0;
#X connect 37 0 40 0;
#X connect 40 0 41 0;
#X connect 41 0 35 0;
#X connect 41 1 35 1;
#X connect 42 0 73 0;
#X connect 42 0 43 0;
#X connect 43 0 46 0;
#X connect 44 0 76 0;
#X connect 45 0 53 0;
#X connect 45 0 63 0;
#X connect 45 0 76 1;
#X connect 46 0 54 0;
#X connect 47 0 48 0;
#X connect 48 0 46 1;
#X connect 49 0 45 0;
#X connect 53 0 55 1;
#X connect 54 0 49 0;
#X connect 54 1 55 0;
#X connect 55 0 56 0;
#X connect 56 0 45 0;
#X connect 57 0 8 0;
#X connect 57 0 82 0;
#X connect 58 0 59 0;
#X connect 59 0 60 0;
#X connect 60 0 62 0;
#X connect 61 0 57 0;
#X connect 62 0 61 0;
#X connect 62 1 61 1;
#X connect 63 0 61 0;
#X connect 64 0 65 0;
#X connect 65 0 66 0;
#X connect 66 0 67 0;
#X connect 67 0 63 0;
#X connect 67 1 63 1;
#X connect 68 0 71 0;
#X connect 69 0 74 0;
#X connect 70 0 69 0;
#X connect 71 0 69 1;
#X connect 73 0 69 1;
#X connect 74 0 44 0;
#X connect 76 0 45 0;
#X connect 78 0 79 0;
#X connect 79 0 80 0;
#X connect 80 0 81 0;
#X connect 81 0 57 0;
