#N canvas 48 96 666 300 12;
#X obj 86 77 loopitems;
#X obj 26 18 inlet;
#X text 151 16 Arg1: name of items to get pointers for.;
#X obj 86 158 get item name;
#X obj 86 122 t p p;
#X obj 86 183 sel \$1;
#X obj 86 242 pointer;
#X obj 86 267 outlet;
#X obj 26 43 route set;
#X connect 0 0 4 0;
#X connect 1 0 8 0;
#X connect 3 0 5 0;
#X connect 4 0 3 0;
#X connect 4 1 6 1;
#X connect 5 0 6 0;
#X connect 6 0 7 0;
#X connect 8 0 5 1;
#X connect 8 1 0 0;
