#N canvas 360 145 647 406 12;
#X obj 39 34 inlet;
#X obj 39 122 list split 1;
#X obj 79 183 list store;
#X obj 496 57 inlet;
#X obj 397 121 list store;
#X obj 397 156 list split 1;
#X obj 437 217 list store;
#X obj 40 224 t b b a;
#X obj 39 59 t list b;
#X obj 196 292 pack;
#X obj 196 317 outlet;
#X text 128 9 Loop for items in two lists simultaneously: Output list
items as tuples in order.;
#X connect 0 0 8 0;
#X connect 1 0 7 0;
#X connect 1 1 2 1;
#X connect 2 0 1 0;
#X connect 3 0 4 1;
#X connect 4 0 5 0;
#X connect 5 0 9 1;
#X connect 5 1 6 1;
#X connect 6 0 5 0;
#X connect 7 0 2 0;
#X connect 7 1 6 0;
#X connect 7 2 9 0;
#X connect 8 0 1 0;
#X connect 8 1 4 0;
#X connect 9 0 10 0;
