#N canvas 1015 161 647 406 12;
#X obj 39 34 inlet;
#X obj 39 122 list split 1;
#X obj 79 183 list store;
#X obj 38 270 outlet;
#X text 135 35 loop for items in two list simultaneously;
#X obj 39 225 t b a;
#X connect 0 0 1 0;
#X connect 1 0 5 0;
#X connect 1 1 2 1;
#X connect 2 0 1 0;
#X connect 5 0 2 0;
#X connect 5 1 3 0;
