#N canvas 2441 187 820 537 12;
#X obj 100 100 cnv 15 80 320 empty \$0-name test 2 10 1 16 -232576
-1 0;
#X obj 265 121 f \$0;
#X obj 265 77 t b b;
#X obj 307 120 symbol \$1;
#X msg 265 174 \; \$1-name label \$2;
#X obj 265 146 pack f s;
#X text 103 386 always;
#X text 103 400 active;
#X obj 148 390 pandatoggle \$1-always-active 19;
#X obj 148 142 pandatoggle \$1-solo 15;
#X obj 148 184 pandatoggle \$1-mute 23;
#X text 146 165 mute;
#X text 145 122 solo;
#X text 149 208 vol.;
#X obj 485 67 r channel-\$1-request;
#X obj 485 139 s channel-\$1-response;
#N canvas 2225 175 490 300 check-pandac~-exists 0;
#X obj 94 139 s pandac~-\$1-request;
#X obj 71 215 symbol \$1;
#X msg 71 242 \; panda print \$1 deleted. You have an obsolete channel
in pandac~mixer.;
#X obj 188 165 r pandac~-\$1-response;
#X obj 70 138 bng 15 250 50 0 empty empty empty 17 7 0 10 -262144 -1
-1;
#X obj 70 35 del 100;
#X msg 188 189 0;
#X obj 70 88 t b b b;
#X msg 117 112 1;
#X obj 70 169 spigot;
#X obj 70 63 metro 1000;
#X obj 13 150 bng 15 250 50 0 empty empty empty 17 7 0 10 -262144 -1
-1;
#X msg 13 168 stop;
#X obj 70 1 loadbang;
#X text 165 8 NOT USED;
#X connect 1 0 2 0;
#X connect 3 0 6 0;
#X connect 4 0 9 0;
#X connect 5 0 10 0;
#X connect 6 0 9 1;
#X connect 7 0 4 0;
#X connect 7 1 0 0;
#X connect 7 2 8 0;
#X connect 8 0 9 1;
#X connect 9 0 1 0;
#X connect 9 0 11 0;
#X connect 10 0 7 0;
#X connect 11 0 12 0;
#X connect 12 0 10 0;
#X restore 480 369 pd check-pandac~-exists;
#X obj 266 50 loadbang;
#X obj 111 143 pandameter~ \$1-to-meter;
#X obj 148 226 pandavslider \$1-volume 0 1;
#X text 475 350 useful for deleting channel automatically?;
#X connect 1 0 5 0;
#X connect 2 0 1 0;
#X connect 2 1 3 0;
#X connect 3 0 5 1;
#X connect 5 0 4 0;
#X connect 14 0 15 0;
#X connect 17 0 2 0;
#X coords 0 -1 1 1 80 320 2 100 100;
