#N canvas 1144 158 748 668 12;
#X obj 102 264 s panda;
#X obj 102 177 symbol \$1;
#X msg 206 331 \; \$1-canvas color 0 0;
#X obj 204 17 r panda;
#X obj 204 42 route \$1;
#X obj 100 100 tgl 24 0 empty empty empty 17 7 0 10 -262144 -1 -1 0
1;
#X obj 204 158 sel 0 1;
#X obj 100 130 t b f;
#X msg 102 236 \$1 \$2;
#X obj 102 202 pack s f;
#X obj 255 220 f \$0;
#X obj 204 183 f \$0;
#X obj 100 100 cnv 24 25 25 empty empty empty 20 12 0 14 -1 -66577
0;
#X obj 103 103 cnv 19 19 19 empty empty empty 20 12 0 14 -262144 -66577
0;
#X obj 105 105 cnv 15 15 15 empty \$0-canvas empty 20 12 0 14 -262144
-66577 0;
#X obj 203 114 tgl 15 0 empty empty empty 17 7 0 10 -262144 -1 -1 0
1;
#X obj 403 55 loadbang;
#X obj 403 80 f \$2;
#X obj 403 105 sel 0;
#X msg 362 142 22;
#X obj 255 194 t b b;
#X obj 136 75 value \$1;
#X obj 136 42 loadbang;
#X obj 255 245 pack;
#X msg 253 289 \; \$1-canvas color \$2 0;
#X obj 214 133 outlet;
#X obj 213 87 inlet;
#X obj 341 222 f 0;
#X floatatom 405 203 5 0 0 0 - - -;
#X connect 1 0 9 0;
#X connect 3 0 4 0;
#X connect 4 0 15 0;
#X connect 4 0 21 0;
#X connect 5 0 7 0;
#X connect 6 0 11 0;
#X connect 6 1 20 0;
#X connect 7 0 1 0;
#X connect 7 1 9 1;
#X connect 8 0 0 0;
#X connect 9 0 8 0;
#X connect 10 0 23 0;
#X connect 11 0 2 0;
#X connect 15 0 6 0;
#X connect 15 0 25 0;
#X connect 16 0 17 0;
#X connect 17 0 18 0;
#X connect 18 0 19 0;
#X connect 18 1 27 1;
#X connect 19 0 27 1;
#X connect 20 0 10 0;
#X connect 20 1 27 0;
#X connect 22 0 21 0;
#X connect 23 0 24 0;
#X connect 26 0 15 0;
#X connect 27 0 23 1;
#X connect 28 0 27 0;
#X coords 0 -1 1 1 25 25 2 100 100;
