#N canvas 783 286 969 530 12;
#X obj 102 383 s panda;
#X obj 102 296 symbol \$1;
#X obj 100 -88 r panda;
#X obj 100 -60 route \$1;
#X obj 98 249 t b f;
#X msg 102 355 \$1 \$2;
#X obj 102 321 pack s f;
#X obj 32 -60 value \$1;
#X obj 32 -87 loadbang;
#X obj 105 102 hsl 141 21 0 1 0 0 \$0-dummy \$0-dummy- empty -2 -8
0 10 -262144 -1 -1 0 1;
#X obj 100 100 cnv 1 150 2 empty empty empty 20 12 0 14 -1 -66577 0
;
#X obj 100 123 cnv 1 150 2 empty empty empty 0 0 0 14 -1 -66577 0;
#X obj 100 100 cnv 1 2 25 empty empty empty 20 12 0 14 -1 -66577 0
;
#X obj 248 100 cnv 1 2 25 empty empty empty 20 12 0 14 -1 -66577 0
;
#X obj 97 194 + \$2;
#X floatatom 100 -34 5 0 0 0 - - -;
#X msg 101 73 set \$1;
#X obj 40 9 outlet;
#X obj 102 128 clip 0 1;
#X obj 423 23 loadbang;
#X obj 423 48 expr \$3-\$2;
#X obj 423 73 s \$0-range;
#X obj 140 158 r \$0-range;
#X obj 102 158 *;
#X obj 181 -37 r \$0-range;
#X obj 100 47 / 1;
#X obj 181 -12 sel 0;
#X msg 181 13 0;
#X obj 100 -8 spigot 1;
#X floatatom 375 133 5 0 0 0 - - -;
#X obj 101 19 - \$2;
#X obj 151 220 inlet;
#X connect 1 0 6 0;
#X connect 2 0 3 0;
#X connect 3 0 15 0;
#X connect 3 0 17 0;
#X connect 4 0 1 0;
#X connect 4 1 6 1;
#X connect 5 0 0 0;
#X connect 6 0 5 0;
#X connect 7 0 15 0;
#X connect 8 0 7 0;
#X connect 9 0 18 0;
#X connect 14 0 4 0;
#X connect 15 0 7 0;
#X connect 15 0 28 0;
#X connect 16 0 9 0;
#X connect 18 0 23 0;
#X connect 19 0 20 0;
#X connect 20 0 21 0;
#X connect 20 0 29 0;
#X connect 22 0 23 1;
#X connect 23 0 14 0;
#X connect 24 0 26 0;
#X connect 25 0 16 0;
#X connect 26 0 27 0;
#X connect 26 1 25 1;
#X connect 27 0 28 1;
#X connect 28 0 30 0;
#X connect 30 0 25 0;
#X connect 31 0 4 0;
#X coords 0 -1 1 1 150 25 2 100 100;
