#N canvas 2067 144 450 389 12;
#X obj 100 100 bng 25 250 50 0 empty empty empty 17 7 0 10 -262144
-1 -1;
#X obj 100 185 s panda;
#X obj 100 132 symbol \$1;
#X msg 100 157 \$1;
#X obj 204 175 f \$0;
#X msg 204 241 \; \$1-canvas color 22 0;
#X msg 239 300 \; \$1-canvas color 0 0;
#X obj 204 85 r panda;
#X obj 204 110 route \$1;
#X obj 204 135 bng 15 250 50 0 empty empty empty 17 7 0 10 -262144
-1 -1;
#X obj 100 100 cnv 25 25 25 empty empty empty 20 12 0 14 -1 -66577
0;
#X obj 103 103 cnv 19 19 19 empty empty empty 20 12 0 14 -262144 -66577
0;
#X obj 105 105 cnv 15 15 15 empty \$0-canvas empty 20 12 0 14 -262144
-66577 0;
#X obj 224 206 pipe 100;
#X obj 85 226 outlet;
#X connect 0 0 2 0;
#X connect 0 0 14 0;
#X connect 2 0 3 0;
#X connect 3 0 1 0;
#X connect 4 0 5 0;
#X connect 4 0 13 0;
#X connect 7 0 8 0;
#X connect 8 0 9 0;
#X connect 9 0 4 0;
#X connect 13 0 6 0;
#X coords 0 -1 1 1 25 25 2 100 100;
