#N canvas 91 160 1614 852 12;
#X obj 155 120 inlet~;
#X obj 290 120 inlet~;
#X obj 154 695 throw~ pandac~1;
#X obj 289 709 throw~ pandac~2;
#X obj 375 117 r panda;
#X obj 375 142 route \$1-volume;
#X msg 375 167 \$1 10;
#X obj 375 192 line~;
#X obj 290 188 *~;
#X obj 156 184 *~;
#X obj 291 368 *~;
#X obj 383 319 r panda;
#X obj 383 344 route \$1-mute;
#X obj 383 369 tgl 15 0 empty empty empty 17 7 0 10 -262144 -1 -1 0
1;
#X msg 324 378 \$1 10;
#X obj 324 403 line~;
#X obj 156 368 *~;
#X obj 383 389 - 1;
#X obj 383 414 * -1;
#X obj 451 378 loadbang;
#X msg 451 403 0;
#X obj 447 170 loadbang;
#X msg 447 195 1;
#X obj 1110 54 r panda;
#X obj 1110 104 tgl 15 0 empty empty empty 17 7 0 10 -262144 -1 -1
0 1;
#X obj 1110 152 symbol \$1;
#X obj 683 180 r panda;
#X obj 683 205 route \$1-solo;
#X obj 683 380 symbol \$1;
#X obj 706 326 s pandac~channel-soloed;
#X obj 934 295 r pandac~channel-soloed;
#X obj 934 323 symbol \$1;
#X text 751 114 SOLO NOT WORKING YET;
#X obj 683 230 tgl 15 0 empty empty empty 17 7 0 10 -262144 -1 -1 0
1;
#X msg 934 372 \; panda \$1-mute 1 \;;
#X obj 846 247 - 1;
#X obj 846 272 * -1;
#X obj 683 256 t b f f;
#X msg 683 436 \; panda \$1-mute 0;
#X obj 934 348 pack s f;
#X obj 1110 124 sel 1;
#X obj 1110 79 route \$1-mute;
#X msg 1110 178 \; panda \$1-solo 0;
#X obj 1272 53 r panda;
#X obj 1272 104 tgl 15 0 empty empty empty 17 7 0 10 -262144 -1 -1
0 1;
#X obj 1272 151 symbol \$1;
#X obj 1272 123 sel 1;
#X obj 1272 78 route \$1-solo;
#X msg 1272 177 \; panda \$1-mute 0;
#N canvas 2169 204 811 811 add-channel-to-mixer 0;
#X obj 92 53 loadbang;
#X obj 112 196 symbol \$1;
#X obj 200 122 s channel-\$1-request;
#X obj 112 155 spigot 1;
#X msg 162 129 1;
#X obj 202 146 r channel-\$1-response;
#X msg 202 171 0;
#X obj 92 88 t b b b b;
#X text 509 240 create pandac~channel;
#X msg 200 224 \; pd-pandac~mixer obj 0 0 pandac~channel \$1 \; panda
\$1-volume 1 \;;
#X obj 173 309 makefilename %s-volume;
#X obj 157 337 makefilename %s-always-active;
#X text 419 302 create save-patch for volume \, etc.;
#X obj 185 279 makefilename %s-mute;
#X obj 111 222 t s s s s s;
#X obj 131 369 makefilename %s-solo;
#X msg 171 402 \; pd-remember-pandac~channels obj 0 0 pd \$1-save \;
pd-\$1-save obj 5 107 nbx 5 14 -1e+37 1e+37 0 1 empty empty empty 0
-8 0 10 -262144 -1 -1 0.507143 256 \; pd-\$1-save obj 5 12 r pandac~update-channels
\; pd-\$1-save obj 5 67 del 1 \; pd-\$1-save msg 72 67 set \\\$1 \;
pd-\$1-save obj 72 9 r panda \; pd-\$1-save obj 72 34 route \$1 \;
pd-\$1-save msg 5 126 \\\; panda \$1 \\\$1 \; pd-\$1-save connect 0
0 6 0 \; pd-\$1-save connect 1 0 2 0 \; pd-\$1-save connect 2 0 0 0
\; pd-\$1-save connect 3 0 0 0 \; pd-\$1-save connect 4 0 5 0 \; pd-\$1-save
connect 5 0 3 0 \; pd-\$1-save vis 0 \; panda \$1-volume 1 \;;
#X msg 92 712 \; pd-pandac~mixer loadbang \; pandac~update-channels
bang \;;
#X connect 0 0 7 0;
#X connect 1 0 14 0;
#X connect 3 0 1 0;
#X connect 4 0 3 1;
#X connect 5 0 6 0;
#X connect 6 0 3 1;
#X connect 7 0 17 0;
#X connect 7 1 3 0;
#X connect 7 2 2 0;
#X connect 7 3 4 0;
#X connect 10 0 16 0;
#X connect 11 0 16 0;
#X connect 13 0 16 0;
#X connect 14 0 15 0;
#X connect 14 1 11 0;
#X connect 14 2 10 0;
#X connect 14 3 13 0;
#X connect 14 4 9 0;
#X connect 15 0 16 0;
#X restore 153 41 pd add-channel-to-mixer;
#X obj 381 18 r pandac~-\$1-request;
#X obj 378 47 s pandac~-\$1-response;
#X obj 594 25 r channel-\$1-loadbang;
#X msg 594 50 \; pd-pandac~mixer loadbang \;;
#X obj 175 237 s~ \$1-1;
#X obj 303 239 s~ \$1-2;
#X obj 37 283 s \$1-to-meter;
#X obj 36 234 env~;
#X obj 36 259 / 100;
#X text 218 475 SOLO;
#X text 369 241 Send before Mute/Solo!;
#X text 303 260 (= mute output \, but still use for other processes)
;
#X obj 1412 182 value pandac~num-soloed;
#X obj 1412 54 * 2;
#X obj 1412 79 - 1;
#X obj 1412 104 t f b;
#X obj 1412 129 +;
#X obj 1412 25 change;
#X obj 973 559 r pandac~has-solo;
#X obj 973 609 tgl 15 0 empty empty empty 17 7 0 10 -262144 -1 -1 0
1;
#X obj 973 584 == 0;
#X obj 326 494 value pandac~num-soloed;
#X obj 1248 221 s pandac~solo-change;
#X obj 1248 193 bng 15 250 50 0 empty empty empty 17 7 0 10 -262144
-1 -1;
#X obj 326 468 r pandac~solo-change;
#X obj 326 544 tgl 15 0 empty empty empty 17 7 0 10 -262144 -1 -1 0
1;
#X text 213 362 MUTE;
#X msg 326 594 \$1 10;
#X obj 326 619 line~;
#X obj 326 564 ||;
#X obj 384 527 r panda;
#X obj 384 578 tgl 15 0 empty empty empty 17 7 0 10 -262144 -1 -1 0
1;
#X obj 384 552 route \$1-solo;
#X obj 384 598 bng 15 250 50 0 empty empty empty 17 7 0 10 -262144
-1 -1;
#X obj 290 517 *~;
#X obj 155 508 *~;
#X obj 1412 154 int;
#X obj 326 519 == 0;
#X connect 0 0 9 0;
#X connect 1 0 8 0;
#X connect 4 0 5 0;
#X connect 5 0 6 0;
#X connect 6 0 7 0;
#X connect 7 0 9 1;
#X connect 7 0 8 1;
#X connect 8 0 10 0;
#X connect 8 0 57 0;
#X connect 8 0 55 0;
#X connect 9 0 16 0;
#X connect 9 0 57 0;
#X connect 9 0 54 0;
#X connect 10 0 84 0;
#X connect 11 0 12 0;
#X connect 12 0 13 0;
#X connect 13 0 17 0;
#X connect 14 0 15 0;
#X connect 15 0 10 1;
#X connect 15 0 16 1;
#X connect 16 0 85 0;
#X connect 17 0 18 0;
#X connect 18 0 14 0;
#X connect 19 0 20 0;
#X connect 20 0 13 0;
#X connect 21 0 22 0;
#X connect 22 0 6 0;
#X connect 23 0 41 0;
#X connect 24 0 40 0;
#X connect 25 0 42 0;
#X connect 26 0 27 0;
#X connect 27 0 33 0;
#X connect 28 0 38 0;
#X connect 30 0 31 0;
#X connect 31 0 39 0;
#X connect 35 0 36 0;
#X connect 36 0 39 1;
#X connect 37 0 28 0;
#X connect 37 2 35 0;
#X connect 39 0 34 0;
#X connect 40 0 25 0;
#X connect 41 0 24 0;
#X connect 43 0 47 0;
#X connect 44 0 46 0;
#X connect 44 0 67 0;
#X connect 45 0 48 0;
#X connect 46 0 45 0;
#X connect 47 0 44 0;
#X connect 47 0 73 0;
#X connect 50 0 51 0;
#X connect 57 0 58 0;
#X connect 58 0 56 0;
#X connect 62 0 66 1;
#X connect 63 0 64 0;
#X connect 64 0 65 0;
#X connect 65 0 66 0;
#X connect 65 1 62 0;
#X connect 66 0 86 0;
#X connect 67 0 63 0;
#X connect 68 0 70 0;
#X connect 70 0 69 0;
#X connect 71 0 87 0;
#X connect 73 0 72 0;
#X connect 74 0 71 0;
#X connect 75 0 79 0;
#X connect 77 0 78 0;
#X connect 78 0 84 1;
#X connect 78 0 85 1;
#X connect 79 0 77 0;
#X connect 80 0 82 0;
#X connect 81 0 79 1;
#X connect 81 0 83 0;
#X connect 82 0 81 0;
#X connect 83 0 79 0;
#X connect 84 0 3 0;
#X connect 85 0 2 0;
#X connect 86 0 62 0;
#X connect 87 0 75 0;
