#N canvas 406 115 1147 699 12;
#X obj 335 245 pack;
#X obj 335 219 f \$0;
#X obj 335 192 t b f;
#X msg 335 273 \; \$1-canvas vis_size 25 \$2;
#X obj 335 142 - 1;
#X obj 335 167 * -125;
#X obj 192 480 change;
#X obj 192 504 sel 1;
#X obj 192 527 spigot 1;
#X msg 235 556 0;
#X msg 277 558 1;
#X obj 277 535 del 300;
#X obj 192 388 expr~ $v1>1||$v1<-1 || $v2>1||$v2<-1 || $v3>1||$v3<-1
|| $v4>1|| $v4<-1, f 76;
#X obj 192 454 snapshot~ 1;
#X obj 284 423 loadbang;
#X obj 284 448 metro 10;
#X text 372 363 DETECT CKIPPING;
#X obj 100 100 cnv 1 25 125 empty \$0-background empty 20 12 0 14 -232576
-66577 0;
#X obj 100 100 cnv 1 25 125 empty \$0-canvas empty 20 12 0 14 -262144
-66577 0;
#X obj 620 42 loadbang;
#X obj 620 145 pack s f;
#X obj 620 67 f \$2;
#X obj 620 92 t b f;
#X obj 620 117 symbol \$1;
#X obj 793 42 loadbang;
#X obj 793 145 pack s f;
#X obj 793 92 t b f;
#X obj 793 117 symbol \$1;
#X msg 793 170 \; \$1-canvas color \$1;
#X obj 793 67 f \$3;
#X msg 620 181 \; \$1-background color \$1;
#X obj 335 113 r \$1;
#X connect 0 0 3 0;
#X connect 1 0 0 0;
#X connect 2 0 1 0;
#X connect 2 1 0 1;
#X connect 4 0 5 0;
#X connect 5 0 2 0;
#X connect 6 0 7 0;
#X connect 7 0 8 0;
#X connect 8 0 9 0;
#X connect 8 0 11 0;
#X connect 9 0 8 1;
#X connect 10 0 8 1;
#X connect 11 0 10 0;
#X connect 12 0 13 0;
#X connect 13 0 6 0;
#X connect 15 0 13 0;
#X connect 20 0 30 0;
#X connect 21 0 22 0;
#X connect 22 0 23 0;
#X connect 22 1 20 1;
#X connect 23 0 20 0;
#X connect 25 0 28 0;
#X connect 26 0 27 0;
#X connect 26 1 25 1;
#X connect 27 0 25 0;
#X connect 29 0 26 0;
#X connect 31 0 4 0;
#X coords 0 -1 1 1 25 125 2 100 100;
