#N canvas 137 96 804 666 12;
#X obj 45 13 inlet~;
#X obj 45 499 outlet~;
#X obj 44 375 *~;
#X obj 157 271 line~;
#X obj 157 7 inlet;
#X text 395 20 Takes a signal and toggles on and off according to right
inlet. Right outlet will output the toggle with a 10 ms delay. This
way \, it can be plugged into switch~ with no worries about clicks!
;
#X obj 157 36 sel 0 1;
#X msg 228 109 1;
#X obj 228 134 outlet;
#X msg 279 110 0;
#X obj 279 78 del 1000;
#X msg 279 50 stop;
#X obj 204 158 del 1;
#X obj 293 145 r panda;
#X obj 157 198 f;
#X obj 201 202 f;
#X obj 293 170 route set-fade-out-duration set-fade-in-duration;
#X msg 204 230 1 \$1;
#X msg 157 231 0 \$1;
#X connect 0 0 2 0;
#X connect 2 0 1 0;
#X connect 3 0 2 1;
#X connect 4 0 6 0;
#X connect 6 0 10 0;
#X connect 6 0 14 0;
#X connect 6 1 7 0;
#X connect 6 1 11 0;
#X connect 6 1 12 0;
#X connect 7 0 8 0;
#X connect 9 0 8 0;
#X connect 10 0 9 0;
#X connect 11 0 10 0;
#X connect 12 0 15 0;
#X connect 13 0 16 0;
#X connect 14 0 18 0;
#X connect 15 0 17 0;
#X connect 16 0 14 1;
#X connect 16 1 15 1;
#X connect 17 0 3 0;
#X connect 18 0 3 0;
