#N canvas 881 123 969 522 12;
#X obj 99 420 s panda;
#X obj 99 333 symbol \$1;
#X obj 100 -6 r panda;
#X obj 100 22 route \$1;
#X obj 99 287 t b f;
#X msg 99 392 \$1 \$2;
#X obj 99 358 pack s f;
#X obj 32 26 value \$1;
#X obj 32 -5 loadbang;
#X floatatom 100 48 5 0 0 0 - - -;
#X obj 34 74 outlet;
#X obj 100 100 nbx 6 25 -1e+37 1e+37 0 0 empty \$0-numberbox empty
0 -8 1 16 -262144 -1 -1 500 256;
#X obj 132 245 change;
#X obj 100 135 t f f;
#X obj 100 178 clip \$2 \$3;
#X msg 132 216 set \$1;
#X obj 290 24 loadbang;
#X obj 290 49 t b b;
#X obj 290 74 f \$2;
#X obj 333 73 f \$3;
#X obj 290 99 == 0;
#X obj 290 124 &&;
#X obj 333 98 == 0;
#X msg 265 202 -1e+37;
#X msg 266 232 1e+37;
#X obj 290 149 sel 1;
#X obj 100 123 cnv 1 88 2 empty empty empty 0 0 0 14 -1 -66577 0;
#X obj 100 100 cnv 1 2 25 empty empty empty 20 12 0 14 -1 -66577 0
;
#X obj 186 100 cnv 1 2 25 empty empty empty 20 12 0 14 -1 -66577 0
;
#X obj 100 100 cnv 1 88 2 empty empty empty 0 0 0 14 -1 -66577 0;
#X msg 100 73 set \$1;
#X obj 146 46 inlet;
#X obj 446 218 f \$0;
#X obj 445 80 loadbang;
#X obj 445 105 f \$4;
#X text 466 28 Args: name \, min \, max \, color;
#X obj 445 130 sel 0;
#X msg 445 155 22;
#X obj 445 180 t b f;
#X obj 446 243 pack;
#X msg 446 275 \; \$1-numberbox color 0 \$2;
#X connect 1 0 6 0;
#X connect 2 0 3 0;
#X connect 3 0 9 0;
#X connect 4 0 1 0;
#X connect 4 1 6 1;
#X connect 5 0 0 0;
#X connect 6 0 5 0;
#X connect 7 0 30 0;
#X connect 8 0 7 0;
#X connect 9 0 30 0;
#X connect 9 0 7 0;
#X connect 9 0 10 0;
#X connect 11 0 13 0;
#X connect 13 0 14 0;
#X connect 13 1 15 0;
#X connect 14 0 12 0;
#X connect 14 0 4 0;
#X connect 15 0 12 0;
#X connect 16 0 17 0;
#X connect 17 0 18 0;
#X connect 17 1 19 0;
#X connect 18 0 20 0;
#X connect 19 0 22 0;
#X connect 20 0 21 0;
#X connect 21 0 25 0;
#X connect 22 0 21 1;
#X connect 23 0 14 1;
#X connect 24 0 14 2;
#X connect 25 0 23 0;
#X connect 25 0 24 0;
#X connect 30 0 11 0;
#X connect 31 0 9 0;
#X connect 32 0 39 0;
#X connect 33 0 34 0;
#X connect 34 0 36 0;
#X connect 36 0 37 0;
#X connect 36 1 38 0;
#X connect 37 0 38 0;
#X connect 38 0 32 0;
#X connect 38 1 39 1;
#X connect 39 0 40 0;
#X coords 0 -1 1 1 88 25 2 100 100;
