#N canvas 805 119 665 709 12;
#X obj 29 55 loadbang;
#X obj 29 105 s \$0-min;
#X obj 114 105 s \$0-max;
#X obj 204 106 s \$0-interval;
#X obj 186 338 random;
#X obj 186 137 r \$0-interval;
#X obj 186 213 t b f;
#X obj 186 270 metro;
#X obj 29 175 -;
#X obj 29 200 abs;
#X obj 29 225 s \$0-range;
#X obj 40 141 bng 15 250 50 0 empty empty empty 17 7 0 10 -262144 -1
-1;
#X obj 227 289 r \$0-range;
#X obj 227 314 * 1000;
#X obj 186 363 / 1000;
#X obj 186 501 +;
#X obj 254 408 r \$0-min;
#X obj 324 446 r \$0-max;
#X obj 254 501 min;
#X obj 372 217 tgl 15 0 empty empty empty 17 7 0 10 -262144 -1 -1 0
1;
#X obj 186 162 sel 0;
#X msg 186 187 1e+15;
#X obj 186 526 s \$1;
#X obj 286 481 f;
#X obj 254 433 pipe 1;
#X obj 254 458 t f b;
#X obj 29 80 rorf \$2;
#X obj 114 80 rorf \$3;
#X obj 204 81 rorf \$4;
#X text 30 13 Args: send-to \, min \, max \, interval;
#X obj 373 191 item \$1;
#X obj 186 238 spigot;
#X connect 0 0 26 0;
#X connect 0 0 27 0;
#X connect 0 0 28 0;
#X connect 4 0 14 0;
#X connect 5 0 20 0;
#X connect 6 0 31 0;
#X connect 6 1 7 1;
#X connect 7 0 4 0;
#X connect 8 0 9 0;
#X connect 9 0 10 0;
#X connect 11 0 8 0;
#X connect 12 0 13 0;
#X connect 13 0 4 1;
#X connect 14 0 15 0;
#X connect 15 0 22 0;
#X connect 16 0 24 0;
#X connect 17 0 23 1;
#X connect 18 0 15 1;
#X connect 19 0 7 0;
#X connect 19 0 31 1;
#X connect 20 0 21 0;
#X connect 20 1 6 0;
#X connect 21 0 6 0;
#X connect 23 0 18 1;
#X connect 24 0 25 0;
#X connect 25 0 18 0;
#X connect 25 1 23 0;
#X connect 26 0 1 0;
#X connect 26 0 8 0;
#X connect 27 0 2 0;
#X connect 27 0 8 1;
#X connect 27 0 11 0;
#X connect 28 0 3 0;
#X connect 30 0 19 0;
#X connect 31 0 7 0;
