#N canvas 1187 203 450 460 12;
#X msg 80 41 args;
#X obj 80 66 pdcontrol;
#X obj 80 91 list split 1;
#X obj 120 182 list split 2;
#X obj 120 207 unpack;
#X obj 120 400 s \$1;
#X obj 159 258 del;
#X obj 159 233 t b f;
#X obj 159 293 list;
#X obj 201 210 bng 15 250 50 0 empty empty empty 17 7 0 10 -262144
-1 -1;
#X obj 120 364 spigot;
#X obj 273 117 item \$1;
#X obj 273 142 tgl 15 0 empty empty empty 17 7 0 10 -262144 -1 -1 1
1;
#X obj 273 167 s \$0-active;
#X obj 159 338 r \$0-active;
#X obj 201 231 spigot;
#X obj 120 157 list store;
#X obj 80 16 r \$0-active;
#X connect 0 0 1 0;
#X connect 1 0 2 0;
#X connect 2 1 16 0;
#X connect 3 0 4 0;
#X connect 3 1 8 1;
#X connect 3 2 9 0;
#X connect 4 0 10 0;
#X connect 4 1 7 0;
#X connect 6 0 8 0;
#X connect 7 0 6 0;
#X connect 7 1 6 1;
#X connect 8 0 3 0;
#X connect 9 0 15 0;
#X connect 10 0 5 0;
#X connect 11 0 12 0;
#X connect 12 0 13 0;
#X connect 12 0 15 1;
#X connect 14 0 10 1;
#X connect 15 0 0 0;
#X connect 16 0 3 0;
#X connect 17 0 0 0;
