#N canvas 238 286 665 709 12;
#X obj 29 55 loadbang;
#X obj 231 236 r \$0-interval;
#X obj 158 176 tgl 15 0 empty empty empty 17 7 0 10 -262144 -1 -1 0
1;
#X obj 29 80 rorf \$2;
#X obj 114 80 rorf \$3;
#X obj 158 150 item \$1;
#X obj 29 105 s \$0-number;
#X obj 114 105 s \$0-interval;
#X obj 158 322 metro;
#X obj 231 261 sel 0;
#X obj 158 297 spigot 0;
#X msg 263 290 1;
#X obj 158 396 f;
#X obj 198 357 r \$0-number;
#X obj 81 295 spigot 0;
#X msg 180 258 1;
#X obj 81 320 sel 1;
#X obj 158 421 s \$1;
#X text 30 13 Args: name/send-to \, number \, interval (0=only at start
of item);
#X connect 0 0 3 0;
#X connect 0 0 4 0;
#X connect 1 0 9 0;
#X connect 2 0 10 0;
#X connect 2 0 14 0;
#X connect 3 0 6 0;
#X connect 4 0 7 0;
#X connect 5 0 2 0;
#X connect 8 0 12 0;
#X connect 9 0 15 0;
#X connect 9 1 8 1;
#X connect 9 1 11 0;
#X connect 10 0 8 0;
#X connect 11 0 10 1;
#X connect 12 0 17 0;
#X connect 13 0 12 1;
#X connect 14 0 16 0;
#X connect 15 0 14 1;
#X connect 16 0 12 0;
