#N canvas 1482 96 432 679 12;
#X declare -path abs;
#N canvas 623 178 1233 855 Panda 0;
#X obj 102 102 cnv 15 416 666 empty empty Panda 5 60 2 115 -232576
-1 0;
#X obj 108 186 cnv 10 64 14 empty empty Promising 0 8 1 13 -1 -262144
0;
#X obj 178 186 cnv 10 72 14 empty empty Algorithmic 0 8 1 13 -1 -262144
0;
#X obj 256 186 cnv 10 88 14 empty empty Non-nonlinear 0 8 1 13 -1 -262144
0;
#X obj 350 186 cnv 10 86 14 empty empty Đoundmaking 0 8 1 13 -1 -262144
0;
#X obj 442 186 cnv 10 71 14 empty empty Application 0 8 1 13 -1 -262144
0;
#N canvas 94 571 1711 478 item 0;
#X obj 27 283 tgl 15 0 empty empty empty 17 7 0 10 -262144 -1 -1 1
1;
#X obj 27 232 r panda;
#X text 26 205 Display positions if items in px? (Setup-Option);
#X obj 26 382 tgl 15 0 empty empty empty 17 7 0 10 -262144 -1 -1 0
1;
#X obj 26 331 r panda;
#X obj 27 257 route show-item-positions;
#X obj 26 356 route show-item-lengths;
#X obj 26 404 drawsymbol len 0 21 0;
#X obj 27 305 drawsymbol x 0 -15 0;
#X obj 747 55 r panda;
#X obj 747 80 route simple-add item-name item-length timeline-position
;
#X obj 747 105 bng 15 250 50 0 empty empty empty 17 7 0 10 -262144
-1 -1;
#X obj 747 151 pack s f f;
#X obj 747 125 symbol;
#X obj 806 106 symbol;
#X msg 747 206 \; panda add \$1 \$2 \$3 30;
#X obj 486 47 r panda;
#X obj 486 72 route add;
#X msg 486 123 \; itemmaker-\$1 add \$2 \$3 \$4;
#X obj 486 97 list;
#X text 482 25 ADD MSG ADDS AN ITEM TO TIMELINE;
#X text 747 25 SIMPLE GUI ADD FOR SINGLE ITEMS;
#X obj 19 115 filledpolygon 999 border-color 3 0 0 len 0 len 20 0 20
;
#X obj 19 39 struct item float len float x float y symbol name float
border-color;
#X obj 18 84 drawsymbol name 3 3 0;
#X connect 0 0 8 0;
#X connect 1 0 5 0;
#X connect 3 0 7 0;
#X connect 4 0 6 0;
#X connect 5 0 0 0;
#X connect 6 0 3 0;
#X connect 9 0 10 0;
#X connect 10 0 11 0;
#X connect 10 1 14 0;
#X connect 10 2 12 1;
#X connect 10 3 12 2;
#X connect 11 0 13 0;
#X connect 12 0 15 0;
#X connect 13 0 12 0;
#X connect 14 0 13 1;
#X connect 16 0 17 0;
#X connect 17 0 19 0;
#X connect 19 0 18 0;
#X restore 543 213 pd item;
#N canvas 220 215 1159 491 record 0;
#X text 29 12 SO FAR ONLY STEREO;
#X obj 26 312 writesf~ 2;
#X obj 235 142 sel 1 0;
#X msg 253 173 stop;
#X obj 235 210 t b b;
#X msg 271 265 open \$1;
#X obj 271 238 symbol;
#X msg 221 236 start;
#X obj 525 65 r record-browse-from-action-win;
#X obj 525 118 s record-filename-to-action-win;
#X obj 237 73 r panda;
#X obj 237 98 route record;
#X obj 237 123 tgl 15 0 empty empty empty 17 7 0 10 -262144 -1 -1 0
1;
#X obj 324 157 r panda;
#X obj 324 182 route output-file;
#X obj 324 207 symbol;
#X obj 531 223 r panda;
#X msg 531 339 \; panda output-file \$1;
#X obj 32 46 r~ pandac-to-record-1;
#X obj 47 111 r~ pandac-to-record-2;
#X text 847 69 Record also starts playback:;
#X obj 847 92 r panda;
#X obj 847 117 route record;
#X obj 847 142 tgl 15 0 empty empty empty 17 7 0 10 -262144 -1 -1 0
1;
#X obj 847 167 sel 1;
#X msg 847 192 \; panda play 1;
#X obj 531 308 savepanel;
#X obj 531 278 symbol /tmp;
#X obj 531 248 route browse-for-output-file project-dir;
#X obj 669 277 symbol;
#X connect 2 0 4 0;
#X connect 2 1 3 0;
#X connect 3 0 1 0;
#X connect 4 0 7 0;
#X connect 4 1 6 0;
#X connect 5 0 1 0;
#X connect 6 0 5 0;
#X connect 7 0 1 0;
#X connect 10 0 11 0;
#X connect 11 0 12 0;
#X connect 12 0 2 0;
#X connect 13 0 14 0;
#X connect 14 0 15 0;
#X connect 15 0 6 1;
#X connect 16 0 28 0;
#X connect 18 0 1 0;
#X connect 19 0 1 1;
#X connect 21 0 22 0;
#X connect 22 0 23 0;
#X connect 23 0 24 0;
#X connect 24 0 25 0;
#X connect 26 0 17 0;
#X connect 27 0 26 0;
#X connect 28 0 27 0;
#X connect 28 1 29 0;
#X connect 29 0 27 1;
#X restore 601 238 pd record;
#N canvas 360 114 1374 924 play 0;
#X msg 213 665 traverse pd-main-win;
#X obj 190 639 t b b f;
#X obj 190 1092 spigot;
#X obj 8 702 s get-active-items-start;
#X obj 190 669 bng 15 250 50 0 empty empty empty 17 7 0 10 -262144
-1 -1;
#X obj 282 901 +;
#X obj 246 902 <=;
#X obj 282 926 >=;
#X obj 258 982 &&;
#X obj 304 759 bng 15 250 50 0 empty empty empty 17 7 0 10 -262144
-1 -1;
#X obj 304 806 s get-active-items-end;
#X obj 190 1126 s get-active-items;
#X text 190 427 GET ACTIVE ITEMS;
#X obj 284 587 r get-active-items-start;
#X msg 284 612 0;
#X obj 332 621 r get-active-items-end;
#X msg 332 646 1;
#X obj 190 614 spigot 1;
#X obj 304 779 del 1;
#X obj 396 763 del 100;
#X obj 394 739 r get-active-items-start;
#X msg 350 751 stop;
#X obj 190 523 f;
#X obj 52 454 r new-item-created;
#X obj 734 638 f;
#X obj 734 582 r new-item-created;
#X obj 189 451 r panda;
#X obj 189 476 route timeline-position;
#X floatatom 189 500 5 0 0 0 - - -;
#X obj 766 611 r panda;
#X obj 766 636 route play;
#X obj 766 661 tgl 15 0 empty empty empty 17 7 0 10 -262144 -1 -1 0
1;
#X msg 734 683 \; panda play \$1;
#X text 445 31 STOP OR LOOP AT END OF PROJECT;
#X obj 441 64 r panda;
#X floatatom 441 114 5 0 0 0 - - -;
#X floatatom 526 112 5 0 0 0 - - -;
#X obj 441 239 f;
#X obj 441 89 route length timeline-position loop;
#X obj 609 112 tgl 15 0 empty empty empty 17 7 0 10 -262144 -1 -1 1
1;
#X obj 441 288 sel 0 1;
#X text 626 338 no loop;
#X obj 457 137 bng 15 250 50 0 empty empty empty 17 7 0 10 -262144
-1 -1;
#X text 650 383 loop;
#X obj 441 211 sel 1;
#X obj 441 159 ==;
#X obj 441 184 change;
#X obj 441 264 pipe 1;
#X msg 441 327 \; panda play 0 \;;
#X obj 747 115 sel 1;
#X obj 747 140 f;
#X obj 747 71 route play timeline-position length;
#X msg 747 215 \; panda timeline-position 0;
#X obj 747 165 >=;
#X obj 747 46 r panda;
#X obj 747 96 tgl 15 0 empty empty empty 17 7 0 10 -262144 -1 -1 0
1;
#X obj 747 190 sel 1;
#X text 746 22 SET POS TO 0 IF AT END WHEN START PLAYING;
#X obj 190 550 if-open-panda-project;
#X text 731 540 retrigger play for new items;
#X text 732 560 when created during playback;
#X text 69 12 PLAYBACK;
#X obj 70 38 r panda;
#X floatatom 70 88 5 0 0 0 - - -;
#X obj 148 113 expr 1/$f1*1000;
#X floatatom 148 138 5 0 0 0 (ms) - -;
#X obj 148 191 metro;
#X obj 148 162 t b f;
#X obj 52 251 f;
#X obj 148 222 spigot;
#X obj 70 63 route timeline-position tempo play;
#X obj 226 88 tgl 15 0 empty empty empty 17 7 0 10 -262144 -1 -1 0
1;
#X obj 52 276 + 1;
#X msg 52 375 \; panda timeline-position \$1;
#X obj 99 273 r panda;
#X obj 99 298 route length;
#X obj 52 341 min;
#X text 86 343 limit pos to length;
#X obj 73 301 bng 15 250 50 0 empty empty empty 17 7 0 10 -262144 -1
-1;
#X obj 980 1498 bng 15 250 50 0 empty empty empty 17 7 0 10 -262144
-1 -1;
#X obj 190 1206 pack s f f;
#X text 269 1207 <-- name \, start \, end;
#X msg 190 1231 \; \$1-active-items \$2 \$3 \;;
#X obj 293 1096 tgl 15 0 empty empty empty 17 7 0 10 -262144 -1 -1
0 1;
#X obj 282 952 t b f;
#X obj 190 871 get item name x len y;
#X obj 429 864 r panda;
#X obj 519 952 t b f;
#X obj 360 925 -;
#X obj 360 975 &&;
#X obj 395 976 t b f;
#X obj 360 950 > -20;
#X obj 401 951 < 0;
#X obj 116 88 sel 0;
#X msg 107 113 stop;
#X msg 464 378 \; panda timeline-position 0;
#X text 756 296 KEEP TIMELINE POSITION IN RANGE OF PROJECT LENGTH;
#X obj 756 319 r panda;
#X obj 756 344 route timeline-position length;
#X obj 756 369 >;
#X obj 756 394 sel 1;
#X obj 756 419 f;
#X msg 756 476 \; panda timeline-position \$1;
#X obj 756 444 pipe 1;
#X obj 293 1050 ||;
#X obj 381 899 route scanline-position performance-mode;
#X text 467 1008 in scanline and performance mode?;
#X obj 431 1006 &&;
#X text 321 1050 scanline or timeline?;
#X obj 519 927 == 1;
#X obj 190 700 loopitems;
#X connect 1 0 4 0;
#X connect 1 1 0 0;
#X connect 1 2 6 1;
#X connect 1 2 7 1;
#X connect 2 0 11 0;
#X connect 2 0 80 0;
#X connect 4 0 3 0;
#X connect 4 0 110 0;
#X connect 5 0 7 0;
#X connect 5 0 80 2;
#X connect 6 0 8 0;
#X connect 7 0 84 0;
#X connect 8 0 104 0;
#X connect 9 0 18 0;
#X connect 9 0 21 0;
#X connect 13 0 14 0;
#X connect 14 0 17 1;
#X connect 15 0 16 0;
#X connect 16 0 17 1;
#X connect 17 0 1 0;
#X connect 18 0 10 0;
#X connect 19 0 10 0;
#X connect 20 0 19 0;
#X connect 21 0 19 0;
#X connect 22 0 58 0;
#X connect 23 0 22 0;
#X connect 24 0 32 0;
#X connect 25 0 24 0;
#X connect 26 0 27 0;
#X connect 27 0 28 0;
#X connect 28 0 22 0;
#X connect 29 0 30 0;
#X connect 30 0 31 0;
#X connect 31 0 24 1;
#X connect 34 0 38 0;
#X connect 35 0 45 0;
#X connect 36 0 42 0;
#X connect 36 0 45 1;
#X connect 37 0 47 0;
#X connect 38 0 35 0;
#X connect 38 1 36 0;
#X connect 38 2 39 0;
#X connect 39 0 37 1;
#X connect 40 0 48 0;
#X connect 40 1 95 0;
#X connect 42 0 45 0;
#X connect 44 0 37 0;
#X connect 45 0 46 0;
#X connect 46 0 44 0;
#X connect 47 0 40 0;
#X connect 49 0 50 0;
#X connect 50 0 53 0;
#X connect 51 0 55 0;
#X connect 51 1 50 1;
#X connect 51 2 53 1;
#X connect 53 0 56 0;
#X connect 54 0 51 0;
#X connect 55 0 49 0;
#X connect 56 0 52 0;
#X connect 58 0 17 0;
#X connect 62 0 70 0;
#X connect 63 0 68 1;
#X connect 64 0 65 0;
#X connect 65 0 67 0;
#X connect 66 0 69 0;
#X connect 67 0 66 0;
#X connect 67 1 66 1;
#X connect 68 0 72 0;
#X connect 69 0 68 0;
#X connect 70 0 63 0;
#X connect 70 1 93 0;
#X connect 70 2 71 0;
#X connect 71 0 69 1;
#X connect 72 0 76 0;
#X connect 74 0 75 0;
#X connect 75 0 76 1;
#X connect 75 0 78 0;
#X connect 76 0 73 0;
#X connect 78 0 76 0;
#X connect 80 0 82 0;
#X connect 83 0 2 1;
#X connect 84 0 8 0;
#X connect 84 1 8 1;
#X connect 85 0 2 0;
#X connect 85 1 5 0;
#X connect 85 1 6 0;
#X connect 85 1 80 1;
#X connect 85 2 5 1;
#X connect 85 3 88 0;
#X connect 86 0 105 0;
#X connect 87 0 107 0;
#X connect 87 1 107 1;
#X connect 88 0 91 0;
#X connect 88 0 92 0;
#X connect 89 0 107 0;
#X connect 90 0 89 0;
#X connect 90 1 89 1;
#X connect 91 0 89 0;
#X connect 92 0 90 0;
#X connect 93 0 94 0;
#X connect 93 1 64 0;
#X connect 94 0 66 0;
#X connect 97 0 98 0;
#X connect 98 0 99 0;
#X connect 98 1 99 1;
#X connect 98 1 101 1;
#X connect 99 0 100 0;
#X connect 100 0 101 0;
#X connect 101 0 103 0;
#X connect 103 0 102 0;
#X connect 104 0 83 0;
#X connect 105 0 88 1;
#X connect 105 1 109 0;
#X connect 107 0 104 1;
#X connect 109 0 87 0;
#X connect 110 0 85 0;
#X connect 110 1 9 0;
#X restore 543 238 pd play;
#N canvas 458 121 999 921 keyboard 0;
#X obj 99 368 select Left;
#X msg 99 393 1;
#X msg 151 395 0;
#X obj 53 427 spigot;
#X msg 377 403 1;
#X msg 429 405 0;
#X obj 331 437 spigot;
#X obj 377 378 select Right;
#X obj 53 452 metro 100;
#X obj 53 477 f;
#X obj 53 534 - 1;
#X obj 332 463 metro 100;
#X obj 332 488 f;
#X obj 332 544 + 1;
#X obj 711 51 keyname;
#X obj 788 81 select Control_L Control_R;
#X msg 788 106 1;
#X msg 913 108 0;
#X obj 711 126 spigot;
#X obj 672 152 spigot;
#X obj 618 152 spigot;
#X obj 618 184 pack f s;
#X obj 618 209 s keyname+ctrl;
#X obj 331 353 keyname;
#X obj 53 344 keyname;
#X obj 45 34 r keyname+ctrl;
#X obj 45 59 unpack f s;
#X obj 45 84 spigot;
#X obj 447 248 keyname;
#X symbolatom 447 273 10 0 0 0 - - -;
#X msg 113 108 1;
#X msg 163 109 0;
#X obj 45 109 sel 1;
#X obj 113 83 sel Space;
#X obj 597 330 r keyname+ctrl;
#X obj 597 355 unpack f s;
#X obj 597 380 spigot;
#X msg 665 404 1;
#X msg 715 405 0;
#X obj 597 405 sel 1;
#X obj 665 379 sel Left;
#X obj 266 32 keyname;
#X obj 266 91 spigot;
#X msg 334 115 1;
#X msg 384 116 0;
#X obj 334 90 sel Space;
#X obj 266 116 sel 1;
#X obj 734 166 s ctrl-pressed;
#X obj 341 37 r ctrl-pressed;
#X obj 341 62 == 0;
#X obj 266 57 spigot;
#X text 265 8 SPACE (otherwise) = stop playback;
#X text 45 6 SPACE+CTRL = Toggle playback;
#X text 597 310 Arrow Left+CTLR = Jump to position 0;
#X text 51 319 Arrow Left = move position backwards;
#X text 330 322 Arrow right = move position forward;
#X text 624 14 Get info on CTLR state:;
#X text 446 223 (keydown monitor:);
#X obj 45 172 tgl 15 0 empty empty empty 17 7 0 10 -262144 -1 -1 0
1;
#X obj 45 245 s panda;
#X msg 266 181 play 0;
#X obj 266 206 s panda;
#X msg 597 430 \; panda timeline-position 0;
#X msg 332 569 \; panda timeline-position \$1;
#X msg 53 620 \; panda timeline-position \$1;
#X obj 138 465 r panda;
#X obj 138 490 route timeline-position;
#X floatatom 138 515 5 0 0 0 - - -;
#X obj 53 559 max 0;
#X msg 45 220 play \$1;
#X obj 329 152 r panda;
#X obj 329 177 route play;
#X obj 266 148 spigot;
#X text 48 671 CTRL+Shift_L = Toggle Loop;
#X obj 74 140 r panda;
#X obj 74 165 route play;
#X obj 45 192 change;
#X obj 53 694 r keyname+ctrl;
#X obj 53 719 unpack f s;
#X obj 53 744 spigot;
#X msg 121 768 1;
#X msg 171 769 0;
#X obj 53 769 sel 1;
#X obj 53 832 tgl 15 0 empty empty empty 17 7 0 10 -262144 -1 -1 1
1;
#X obj 53 905 s panda;
#X obj 82 800 r panda;
#X obj 53 852 change;
#X msg 53 880 loop \$1;
#X obj 82 825 route loop;
#X obj 121 743 sel Shift_L;
#X connect 0 0 1 0;
#X connect 0 1 2 0;
#X connect 1 0 3 1;
#X connect 2 0 3 1;
#X connect 3 0 8 0;
#X connect 4 0 6 1;
#X connect 5 0 6 1;
#X connect 6 0 11 0;
#X connect 7 0 4 0;
#X connect 7 1 5 0;
#X connect 8 0 9 0;
#X connect 9 0 10 0;
#X connect 10 0 68 0;
#X connect 11 0 12 0;
#X connect 12 0 13 0;
#X connect 13 0 63 0;
#X connect 14 0 18 0;
#X connect 14 0 20 0;
#X connect 14 1 15 0;
#X connect 14 1 19 0;
#X connect 15 0 16 0;
#X connect 15 1 16 0;
#X connect 15 2 17 0;
#X connect 16 0 18 1;
#X connect 17 0 18 1;
#X connect 18 0 19 1;
#X connect 18 0 20 1;
#X connect 18 0 47 0;
#X connect 19 0 21 1;
#X connect 20 0 21 0;
#X connect 21 0 22 0;
#X connect 23 0 6 0;
#X connect 23 1 7 0;
#X connect 24 0 3 0;
#X connect 24 1 0 0;
#X connect 25 0 26 0;
#X connect 26 0 27 0;
#X connect 26 1 33 0;
#X connect 27 0 32 0;
#X connect 28 1 29 0;
#X connect 30 0 27 1;
#X connect 31 0 27 1;
#X connect 32 0 58 0;
#X connect 33 0 30 0;
#X connect 33 1 31 0;
#X connect 34 0 35 0;
#X connect 35 0 36 0;
#X connect 35 1 40 0;
#X connect 36 0 39 0;
#X connect 37 0 36 1;
#X connect 38 0 36 1;
#X connect 39 0 62 0;
#X connect 40 0 37 0;
#X connect 40 1 38 0;
#X connect 41 0 50 0;
#X connect 41 1 45 0;
#X connect 42 0 46 0;
#X connect 43 0 42 1;
#X connect 44 0 42 1;
#X connect 45 0 43 0;
#X connect 45 1 44 0;
#X connect 46 0 72 0;
#X connect 48 0 49 0;
#X connect 49 0 50 1;
#X connect 50 0 42 0;
#X connect 58 0 76 0;
#X connect 60 0 61 0;
#X connect 65 0 66 0;
#X connect 66 0 67 0;
#X connect 67 0 12 1;
#X connect 67 0 9 1;
#X connect 68 0 64 0;
#X connect 69 0 59 0;
#X connect 70 0 71 0;
#X connect 71 0 72 1;
#X connect 72 0 60 0;
#X connect 74 0 75 0;
#X connect 75 0 58 0;
#X connect 76 0 69 0;
#X connect 77 0 78 0;
#X connect 78 0 79 0;
#X connect 78 1 89 0;
#X connect 79 0 82 0;
#X connect 80 0 79 1;
#X connect 81 0 79 1;
#X connect 82 0 83 0;
#X connect 83 0 86 0;
#X connect 85 0 88 0;
#X connect 86 0 87 0;
#X connect 87 0 84 0;
#X connect 88 0 83 0;
#X connect 89 0 80 0;
#X connect 89 1 81 0;
#X restore 791 212 pd keyboard;
#N canvas 496 215 1404 794 project 0;
#X msg 16 284 \; pd-main-win vis 1 \, editmode 1;
#X obj 1021 251 textfile;
#X text 870 21 START A NEW PROJECT;
#X obj 872 106 savepanel;
#X msg 1021 223 read abs/project-template.pd;
#X msg 928 220 write \$1;
#X text 939 195 copy template to new project file;
#X text 986 284 open project file;
#X obj 16 205 r panda;
#X obj 16 230 route show-main-win;
#X obj 872 52 r panda;
#X obj 872 77 route new-project;
#X text 13 179 OPEN MAIN WINDOW;
#X obj 11 374 r panda;
#X text 10 349 OPEN SETUP WINDOW;
#X obj 11 399 route show-setup-win;
#X msg 11 424 \; pd-setup-win vis 1 \, editmode 0;
#X obj 872 481 t b b;
#X obj 872 511 del 1;
#X obj 872 536 t b b;
#X obj 904 589 f;
#X msg 939 585 1;
#X msg 872 561 0;
#X obj 904 638 tgl 15 0 empty empty empty 17 7 0 10 -262144 -1 -1 1
1;
#X obj 872 429 loadbang;
#N canvas 446 381 1177 657 make-timeline-grid 0;
#X obj 280 10 r panda;
#X obj 469 124 t b f;
#X msg 469 149 0;
#X obj 509 249 f;
#X obj 510 199 int;
#X obj 509 223 until;
#X floatatom 509 274 5 0 0 0 - - -;
#X obj 509 423 makefilename;
#X obj 509 343 t b s;
#X msg 509 392 symbol __________;
#X msg 527 367 set \$1;
#X obj 509 318 makefilename %d%%s;
#X obj 509 471 makefilename %.10s;
#X obj 502 598 makefilename;
#X obj 559 526 makefilename %s%%s;
#X obj 509 496 t s s;
#X msg 564 556 set \$1;
#X msg 396 506 symbol;
#X msg 502 647 \; timegrid label \$1;
#X obj 538 249 + 100;
#X obj 502 622 makefilename %.500s;
#X obj 280 155 f;
#X obj 344 125 bng 15 250 50 0 empty empty empty 17 7 0 10 -262144
-1 -1;
#X obj 510 149 / 100;
#X obj 510 174 + 0.666;
#X obj 61 65 r panda;
#X obj 61 90 route show-timeline;
#X obj 61 115 tgl 15 0 empty empty empty 17 7 0 10 -262144 -1 -1 0
1;
#X obj 344 36 spigot;
#X obj 61 148 t f f;
#X obj 61 173 sel 0 1;
#X msg 84 197 \; panda update-timeline;
#X msg 61 238 \; timegrid vis_size 0 0 \; timegrid color 0 \; timegrid
label _ \; panda update-timeline \;;
#X msg 189 415 \; timegrid pos 0 0 \; timegrid vis_size \$1 12 \; timegrid
color #9c00ff \;;
#X obj 190 344 + 1;
#X obj 280 96 route length;
#X obj 345 64 route update-timeline length;
#X connect 0 0 28 0;
#X connect 0 0 35 0;
#X connect 1 0 2 0;
#X connect 1 1 23 0;
#X connect 2 0 3 1;
#X connect 2 0 17 0;
#X connect 3 0 6 0;
#X connect 3 0 19 0;
#X connect 4 0 5 0;
#X connect 5 0 3 0;
#X connect 6 0 11 0;
#X connect 7 0 12 0;
#X connect 8 0 9 0;
#X connect 8 1 10 0;
#X connect 9 0 7 0;
#X connect 10 0 7 0;
#X connect 11 0 8 0;
#X connect 12 0 15 0;
#X connect 13 0 20 0;
#X connect 14 0 16 0;
#X connect 15 1 13 0;
#X connect 16 0 13 0;
#X connect 17 0 14 0;
#X connect 19 0 3 1;
#X connect 20 0 14 0;
#X connect 20 0 18 0;
#X connect 21 0 1 0;
#X connect 21 0 34 0;
#X connect 22 0 21 0;
#X connect 23 0 24 0;
#X connect 24 0 4 0;
#X connect 25 0 26 0;
#X connect 26 0 27 0;
#X connect 27 0 29 0;
#X connect 28 0 36 0;
#X connect 29 0 30 0;
#X connect 29 1 28 1;
#X connect 30 0 32 0;
#X connect 30 1 31 0;
#X connect 34 0 33 0;
#X connect 35 0 21 1;
#X connect 36 0 22 0;
#X connect 36 1 21 0;
#X restore 6 653 pd make-timeline-grid;
#X text 5 631 GENERATE THE GRID DYNMICALLY:;
#X text 8 710 EDIT MAIN WIN:;
#X text 9 806 STOP EDITING MAIN WIN:;
#N canvas 515 279 1041 739 make-timeline-marker 0;
#X obj 45 42 r panda;
#X text 42 25 GET TIMELINE POSITION;
#X obj 150 102 bng 15 250 50 0 empty empty empty 17 7 0 10 -262144
-1 -1;
#X text 439 41 CHANGE TIMELINE MARKER HEIGHT;
#X obj 439 64 r panda;
#X obj 439 89 route timeline-marker-height;
#X obj 717 47 r panda;
#X obj 717 97 tgl 15 0 empty empty empty 17 7 0 10 -262144 -1 -1 0
1;
#X obj 775 98 tgl 15 0 empty empty empty 17 7 0 10 -262144 -1 -1 1
1;
#X obj 747 144 - 1;
#X obj 747 169 * -1;
#X obj 717 199 spigot 1;
#X obj 717 228 sel 0 1;
#X obj 717 146 f;
#X obj 726 120 t b f;
#X obj 775 118 sel 1;
#X obj 209 101 r panda;
#X obj 209 126 route show-timeline;
#X obj 209 151 tgl 15 0 empty empty empty 17 7 0 10 -262144 -1 -1 0
1;
#X obj 45 208 t f b;
#X obj 94 267 f;
#X obj 45 313 pack;
#X msg 45 339 \; timeline pos \$1 \$2;
#X obj 209 197 t b f;
#X text 713 24 CHANGE TIMELINE COLOR;
#X obj 209 172 * 13;
#X obj 717 72 route record performance-mode;
#X msg 809 234 \; timeline color 14 \;;
#X msg 717 279 \; timeline color #9c00ff \;;
#X msg 717 327 \; timeline color 13 \;;
#X obj 45 182 f;
#X obj 45 67 route timeline-position update-timeline;
#X msg 440 175 \; timeline vis_size 1 \$1;
#X connect 0 0 31 0;
#X connect 2 0 30 0;
#X connect 4 0 5 0;
#X connect 5 0 32 0;
#X connect 6 0 26 0;
#X connect 7 0 13 0;
#X connect 8 0 14 0;
#X connect 8 0 15 0;
#X connect 9 0 10 0;
#X connect 10 0 11 1;
#X connect 11 0 12 0;
#X connect 12 0 28 0;
#X connect 12 1 29 0;
#X connect 13 0 11 0;
#X connect 14 0 13 0;
#X connect 14 1 9 0;
#X connect 15 0 27 0;
#X connect 16 0 17 0;
#X connect 17 0 18 0;
#X connect 18 0 25 0;
#X connect 19 0 21 0;
#X connect 19 1 20 0;
#X connect 20 0 21 1;
#X connect 21 0 22 0;
#X connect 23 0 2 0;
#X connect 23 1 20 1;
#X connect 25 0 23 0;
#X connect 26 0 7 0;
#X connect 26 1 8 0;
#X connect 30 0 19 0;
#X connect 31 0 30 0;
#X connect 31 1 2 0;
#X restore 7 599 pd make-timeline-marker;
#X text 6 576 SET TIMELINE MARKER:;
#X obj 904 614 change;
#X obj 12 76 loadbang;
#X msg 12 101 \; panda panda-loadbang;
#X text 7 53 Tells [panda-project] that Panda is opened;
#X obj 872 132 get-dir-and-file-from-path;
#N canvas 998 299 894 685 main-win-template 0;
#X obj 0 0 cnv 1 1 1 empty timegrid _ 0 7 0 16 -262144 -262144 0;
#X obj 0 0 cnv 1 1 500 empty timeline empty 20 12 0 14 -260818 -66577
0;
#X obj 0 160 cnv 1 1 1 empty scanline empty 20 12 0 14 -260818 -66577
0;
#X restore 9 18 pd main-win-template;
#X obj 16 256 if-open-panda-project;
#X msg 821 332 \; panda print New project \$1 created.;
#X msg 248 280 \; panda print Open a project to show its main window.
;
#X text 876 406 DETECT IF A PROJECT IS OPEN;
#X obj 265 377 r panda;
#X text 265 352 OPEN ADD MULTIPLE ITEMS WINDOW;
#X obj 265 402 route show-add-multiple-items-win;
#X msg 265 427 \; pd-add-multiple-items-win vis 1 \, editmode 0;
#X msg 904 658 \; panda open-project? \$1;
#X obj 873 454 metro 500;
#X obj 1021 170 loadbang;
#X obj 936 506 s project-request;
#X obj 938 559 r project-response;
#X obj 268 499 r panda;
#X text 268 474 OPEN MANUAL;
#X obj 268 570 symbol;
#X obj 268 524 route show-manual dir;
#X obj 268 549 bng 15 250 50 0 empty empty empty 17 7 0 10 -262144
-1 -1;
#X msg 268 595 browse \$1/man/index.html;
#X obj 268 620 pdcontrol;
#X obj 337 551 symbol;
#X obj 266 688 r panda;
#X text 266 663 OPEN PANDAC~MIXER;
#X obj 266 713 route show-pandac~mixer;
#X msg 266 804 \; pd-pandac~mixer vis 1 \, editmode 0;
#X obj 266 739 if-open-panda-project;
#X msg 410 764 \; panda print Open a project to show its pandac~ mixer.
;
#X msg 9 732 \; timegrid size 15 \; timeline size 15 \; scanline size
15;
#X msg 10 828 \; timegrid size 0 \; timeline size 0 \; scanline size
0;
#X msg 883 274 \; pd open \$1 \$2;
#X connect 3 0 5 0;
#X connect 3 0 35 0;
#X connect 4 0 1 0;
#X connect 5 0 1 0;
#X connect 8 0 9 0;
#X connect 9 0 37 0;
#X connect 10 0 11 0;
#X connect 11 0 3 0;
#X connect 13 0 15 0;
#X connect 15 0 16 0;
#X connect 17 0 18 0;
#X connect 17 1 48 0;
#X connect 18 0 19 0;
#X connect 19 0 22 0;
#X connect 19 1 20 0;
#X connect 20 0 31 0;
#X connect 21 0 20 1;
#X connect 22 0 20 1;
#X connect 23 0 45 0;
#X connect 24 0 46 0;
#X connect 31 0 23 0;
#X connect 32 0 33 0;
#X connect 35 0 38 0;
#X connect 35 0 66 0;
#X connect 37 0 0 0;
#X connect 37 1 39 0;
#X connect 41 0 43 0;
#X connect 43 0 44 0;
#X connect 46 0 17 0;
#X connect 47 0 4 0;
#X connect 49 0 21 0;
#X connect 50 0 53 0;
#X connect 52 0 55 0;
#X connect 53 0 54 0;
#X connect 53 1 57 0;
#X connect 54 0 52 0;
#X connect 55 0 56 0;
#X connect 57 0 52 1;
#X connect 58 0 60 0;
#X connect 60 0 62 0;
#X connect 62 0 61 0;
#X connect 62 1 63 0;
#X restore 543 188 pd project;
#X obj 543 103 declare -path abs;
#N canvas 412 153 1470 897 pandac~ 0;
#X msg 391 286 \$1 10;
#X obj 391 311 line~;
#X obj 365 364 *~;
#X obj 264 342 *~;
#X obj 263 466 clip~ -1 1;
#X obj 366 463 clip~ -1 1;
#X obj 606 570 tgl 15 0 empty empty empty 17 7 0 10 -262144 -1 -1 1
1;
#X obj 284 504 *~;
#X msg 606 592 \$1 10;
#X obj 606 615 line~;
#X obj 391 537 *~;
#X obj 264 21 catch~ pandac~1;
#X obj 365 42 catch~ pandac~2;
#X obj 264 640 s~ pandac-to-record-1;
#X obj 366 681 s~ pandac-to-record-2;
#X obj 298 599 dac~ 1 2;
#X obj 392 229 r panda;
#X obj 606 452 r panda;
#X obj 606 475 route mute;
#X obj 606 521 - 1;
#X obj 606 544 * -1;
#X msg 1128 262 start;
#X text 1028 103 VISUALISE SOUNDWAVE;
#X obj 1129 351 r~ pandac-to-record-1;
#X obj 1289 354 r~ pandac-to-record-2;
#X obj 1128 394 tabwrite~ left;
#X obj 1289 393 tabwrite~ right;
#X obj 606 500 tgl 15 0 empty empty empty 17 7 0 10 -262144 -1 -1 0
1;
#X obj 1128 128 r panda;
#X obj 1128 153 route play;
#X obj 1128 178 tgl 15 0 empty empty empty 17 7 0 10 -262144 -1 -1
0 1;
#X obj 1128 230 metro 50;
#X obj 1003 218 sel 0;
#X msg 1002 275 \; left const 0 \; right const 0;
#X obj 1003 243 del 51;
#X obj 1250 202 loadbang;
#X obj 1250 227 del 1;
#X obj 765 192 bng 15 250 50 0 empty empty empty 17 7 0 10 -262144
-1 -1;
#X obj 764 266 osc~;
#X obj 764 319 *~ 0.5;
#X text 764 117 TEST SOUND;
#X obj 764 166 route pandac~test;
#X obj 763 141 r panda;
#X msg 481 157 \$1 10;
#X obj 481 182 line~;
#X obj 481 79 r panda;
#X obj 481 104 route play;
#X obj 364 91 *~;
#X obj 263 112 *~;
#X obj 391 254 route volume;
#X obj 263 418 hip~ 1;
#X obj 366 414 hip~ 1;
#X text 421 412 DC Filter;
#X obj 764 241 vline~;
#X msg 765 216 1000 50 \, 0 450 50;
#X obj 764 291 hip~ 100;
#X msg 910 194 1;
#X obj 908 224 del 500;
#X msg 908 249 0;
#X obj 644 537 loadbang;
#X msg 644 562 1;
#X obj 481 129 tgl 15 0 empty empty empty 17 7 0 10 -262144 -1 -1 0
1;
#X obj 263 719 env~;
#X obj 263 744 / 100;
#X obj 366 805 env~;
#X obj 366 830 / 100;
#X obj 263 769 s pandac-to-record-1;
#X obj 366 855 s pandac-to-record-2;
#X connect 0 0 1 0;
#X connect 1 0 2 1;
#X connect 1 0 3 1;
#X connect 2 0 51 0;
#X connect 3 0 50 0;
#X connect 4 0 7 0;
#X connect 4 0 13 0;
#X connect 4 0 62 0;
#X connect 5 0 10 0;
#X connect 5 0 14 0;
#X connect 5 0 64 0;
#X connect 6 0 8 0;
#X connect 7 0 15 0;
#X connect 8 0 9 0;
#X connect 9 0 7 1;
#X connect 9 0 10 1;
#X connect 10 0 15 1;
#X connect 11 0 48 0;
#X connect 12 0 47 0;
#X connect 16 0 49 0;
#X connect 17 0 18 0;
#X connect 18 0 27 0;
#X connect 19 0 20 0;
#X connect 20 0 6 0;
#X connect 21 0 25 0;
#X connect 21 0 26 0;
#X connect 23 0 25 0;
#X connect 24 0 26 0;
#X connect 27 0 19 0;
#X connect 28 0 29 0;
#X connect 29 0 30 0;
#X connect 30 0 31 0;
#X connect 30 0 32 0;
#X connect 31 0 21 0;
#X connect 32 0 34 0;
#X connect 34 0 33 0;
#X connect 35 0 36 0;
#X connect 36 0 21 0;
#X connect 37 0 56 0;
#X connect 37 0 57 0;
#X connect 37 0 54 0;
#X connect 38 0 55 0;
#X connect 39 0 3 0;
#X connect 39 0 2 0;
#X connect 41 0 37 0;
#X connect 42 0 41 0;
#X connect 43 0 44 0;
#X connect 44 0 47 1;
#X connect 44 0 48 1;
#X connect 45 0 46 0;
#X connect 46 0 61 0;
#X connect 47 0 2 0;
#X connect 48 0 3 0;
#X connect 49 0 0 0;
#X connect 50 0 4 0;
#X connect 51 0 5 0;
#X connect 53 0 38 0;
#X connect 54 0 53 0;
#X connect 55 0 39 0;
#X connect 56 0 30 0;
#X connect 57 0 58 0;
#X connect 58 0 30 0;
#X connect 59 0 60 0;
#X connect 60 0 6 0;
#X connect 61 0 43 0;
#X connect 62 0 63 0;
#X connect 63 0 66 0;
#X connect 64 0 65 0;
#X connect 65 0 67 0;
#X restore 671 238 pd pandac~;
#X text 540 720 Simon Bahr \, 2022;
#X obj 108 207 pandabang show-main-win;
#X obj 435 206 pandabang new-project;
#X obj 438 120 cnv 15 70 50 empty empty empty 20 12 0 14 -262144 -66577
0;
#X obj 448 110 cnv 15 50 70 empty empty empty 20 12 0 14 -262144 -66577
0;
#X obj 443 114 cnv 15 60 60 empty empty empty 20 12 0 14 -262144 -66577
0;
#X obj 444 117 cnv 20 20 20 empty empty empty 20 12 0 14 -1 -66577
0;
#X obj 449 124 cnv 10 10 10 empty empty empty 20 12 0 14 -262144 -66577
0;
#X obj 470 138 cnv 6 6 12 empty empty empty 20 12 0 14 -1 -66577 0
;
#X obj 481 117 cnv 20 20 20 empty empty empty 20 12 0 14 -1 -66577
0;
#X obj 486 124 cnv 10 10 10 empty empty empty 20 12 0 14 -262144 -66577
0;
#X obj 458 155 cnv 20 30 20 empty empty empty 20 12 0 14 -1 -66577
0;
#X obj 463 160 cnv 10 20 10 empty empty empty 20 12 0 14 -262144 -66577
0;
#X obj 467 141 cnv 6 12 6 empty empty empty 20 12 0 14 -1 -66577 0
;
#X obj 468 140 cnv 6 10 8 empty empty empty 20 12 0 14 -1 -66577 0
;
#X obj 469 139 cnv 6 8 10 empty empty empty 20 12 0 14 -1 -66577 0
;
#X obj 451 126 cnv 6 6 6 empty empty empty 20 12 0 14 -1 -66577 0;
#X obj 488 126 cnv 6 6 6 empty empty empty 20 12 0 14 -1 -66577 0;
#X obj 504 105 cnv 6 6 12 empty empty empty 20 12 0 14 -1 -66577 0
;
#X obj 501 108 cnv 6 12 6 empty empty empty 20 12 0 14 -1 -66577 0
;
#X obj 502 107 cnv 6 10 8 empty empty empty 20 12 0 14 -1 -66577 0
;
#X obj 503 106 cnv 6 8 10 empty empty empty 20 12 0 14 -1 -66577 0
;
#X obj 436 105 cnv 6 6 12 empty empty empty 20 12 0 14 -1 -66577 0
;
#X obj 433 108 cnv 6 12 6 empty empty empty 20 12 0 14 -1 -66577 0
;
#X obj 434 107 cnv 6 10 8 empty empty empty 20 12 0 14 -1 -66577 0
;
#X obj 435 106 cnv 6 8 10 empty empty empty 20 12 0 14 -1 -66577 0
;
#X obj 107 537 cnv 15 406 225 empty empty pandac~ 1 -5 1 45 -262144
-159808 0;
#X obj 110 568 pandatoggle mute 23;
#X obj 391 284 pandatoggle play 16;
#X obj 118 626 pandameter~ pandac-to-record-1;
#X obj 318 626 pandameter~ pandac-to-record-2;
#N canvas 1179 240 587 300 init 0;
#X obj 48 33 loadbang;
#X obj 48 58 del 1;
#X obj 315 115 pdcontrol;
#X msg 315 84 dir;
#X msg 315 180 \; panda dir \$1;
#X obj 315 30 r panda;
#X obj 315 55 route project-loadbang;
#X msg 48 87 \; panda item-name ? \; panda item-length 100 \; panda
output-file /tmp/panda.wav \; panda add-multiple-amount 2 \; panda
add-multiple-y 30 \; panda add-multiple2-xform $f1*100 \; panda add-multiple2-lenform
25+25 \;;
#X connect 0 0 1 0;
#X connect 1 0 7 0;
#X connect 1 0 3 0;
#X connect 2 0 4 0;
#X connect 3 0 2 0;
#X connect 5 0 6 0;
#X connect 6 0 3 0;
#X restore 621 188 pd init;
#X obj 108 284 pandanumber timeline-position 0 1e+37 18;
#X obj 198 348 pandanumber item-length 0 1e+37;
#X obj 107 354 pandasymbol item-name;
#X obj 200 284 pandanumber tempo 0 1e+37;
#X text 199 264 (pix./sec.);
#N canvas 722 96 438 687 setup-win 0;
#N canvas 48 96 641 906 sub 0;
#X obj 102 102 cnv 15 416 666 empty empty Setup 5 30 2 50 -232576 -1
0;
#X obj 267 187 pandatoggle show-timeline;
#X obj 267 223 pandahslider timeline-marker-height 28 1080;
#X text 106 226 Timeline Marker Height;
#X text 106 157 Saving Panda.pd will automatically save all settings.
;
#X obj 421 223 pandanumber timeline-marker-height;
#X text 211 269 (in px);
#X text 211 305 (in px);
#X obj 267 295 pandatoggle show-item-lengths;
#X obj 267 259 pandatoggle show-item-positions;
#X text 113 190 Show Numeric Timeline;
#X text 102 750 Simon Bahr \, 2022;
#X text 304 750 https://www.simonbahr.de/panda;
#X obj 421 324 pandanumber set-fade-in-duration 0 500;
#X obj 421 353 pandanumber set-fade-out-duration 0 500;
#X obj 267 324 pandahslider set-fade-in-duration 0 500;
#X obj 267 354 pandahslider set-fade-out-duration 0 500;
#X text 211 336 (in ms);
#X text 211 364 (in ms);
#X text 127 255 Show Item Positions;
#X text 141 291 Show Item Lengths;
#X text 148 322 Fade-In Duration;
#X text 141 350 Fade-Out Duration;
#X coords 0 -1 1 1 420 670 2 100 100;
#X restore 7 6 pd sub;
#X restore 543 128 pd setup-win;
#X obj 280 207 pandabang show-setup-win;
#X text 306 210 Setup;
#X obj 427 284 pandatoggle loop 19;
#X obj 292 284 pandanumber length 0 1e+37;
#X text 294 264 (pix.);
#N canvas 67 89 450 300 (subpatch) 0;
#X array left 2205 float 2;
#X coords 0 1 2205 -1 200 140 1 0 0;
#X restore 110 618 graph;
#N canvas 0 69 450 300 (subpatch) 0;
#X array right 2205 float 2;
#X coords 0 1 2205 -1 200 140 1 0 0;
#X restore 310 618 graph;
#N canvas 55 504 1563 522 setup 0;
#X obj 732 30 r panda;
#X obj 732 167 nbx 5 14 -1e+37 1e+37 0 1 empty empty (state_saving_nbx)
0 -8 0 10 -262144 -1 -1 1 256;
#X obj 741 108 loadbang;
#X msg 732 81 set \$1;
#X obj 741 133 del 1;
#X obj 1095 30 r panda;
#X obj 1095 167 nbx 5 14 -1e+37 1e+37 0 1 empty empty (state_saving_nbx)
0 -8 0 10 -262144 -1 -1 0 256;
#X obj 1104 108 loadbang;
#X msg 1095 81 set \$1;
#X obj 1104 133 del 1;
#X obj 1094 55 route show-item-lengths project-loadbang;
#X msg 1095 189 \; panda show-item-lengths \$1;
#X msg 732 189 \; panda show-item-positions \$1;
#X obj 732 55 route show-item-positions project-loadbang;
#X obj 35 254 r panda;
#X obj 35 391 nbx 5 14 -1e+37 1e+37 0 1 empty empty (state_saving_nbx)
0 -8 0 10 -262144 -1 -1 15 256;
#X obj 44 332 loadbang;
#X msg 35 305 set \$1;
#X obj 44 357 del 1;
#X obj 34 279 route set-fade-in-duration project-loadbang;
#X msg 35 413 \; panda set-fade-in-duration \$1;
#X obj 365 254 r panda;
#X obj 365 391 nbx 5 14 -1e+37 1e+37 0 1 empty empty (state_saving_nbx)
0 -8 0 10 -262144 -1 -1 100 256;
#X obj 374 332 loadbang;
#X msg 365 305 set \$1;
#X obj 374 357 del 1;
#X obj 364 279 route set-fade-out-duration project-loadbang;
#X msg 365 413 \; panda set-fade-out-duration \$1;
#X obj 359 26 r panda;
#X obj 359 163 nbx 5 14 -1e+37 1e+37 0 1 empty empty (state_saving_nbx)
0 -8 0 10 -262144 -1 -1 500 256;
#X obj 368 104 loadbang;
#X msg 359 77 set \$1;
#X obj 368 129 del 1;
#X msg 359 185 \; panda timeline-marker-height \$1;
#X obj 358 51 route timeline-marker-height project-loadbang;
#X obj 29 26 r panda;
#X obj 29 163 nbx 5 14 -1e+37 1e+37 0 1 empty empty (state_saving_nbx)
0 -8 0 10 -262144 -1 -1 0 256;
#X obj 38 104 loadbang;
#X msg 29 77 set \$1;
#X obj 38 129 del 1;
#X msg 29 185 \; panda show-timeline \$1;
#X obj 28 51 route show-timeline project-loadbang;
#X obj 443 332 r pandac~update-channels;
#X obj 112 332 r pandac~update-channels;
#X connect 0 0 13 0;
#X connect 1 0 12 0;
#X connect 2 0 4 0;
#X connect 3 0 1 0;
#X connect 4 0 1 0;
#X connect 5 0 10 0;
#X connect 6 0 11 0;
#X connect 7 0 9 0;
#X connect 8 0 6 0;
#X connect 9 0 6 0;
#X connect 10 0 8 0;
#X connect 10 1 6 0;
#X connect 13 0 3 0;
#X connect 13 1 1 0;
#X connect 14 0 19 0;
#X connect 15 0 20 0;
#X connect 16 0 18 0;
#X connect 17 0 15 0;
#X connect 18 0 15 0;
#X connect 19 0 17 0;
#X connect 19 1 15 0;
#X connect 21 0 26 0;
#X connect 22 0 27 0;
#X connect 23 0 25 0;
#X connect 24 0 22 0;
#X connect 25 0 22 0;
#X connect 26 0 24 0;
#X connect 26 1 22 0;
#X connect 28 0 34 0;
#X connect 29 0 33 0;
#X connect 30 0 32 0;
#X connect 31 0 29 0;
#X connect 32 0 29 0;
#X connect 34 0 31 0;
#X connect 34 1 29 0;
#X connect 35 0 41 0;
#X connect 36 0 40 0;
#X connect 37 0 39 0;
#X connect 38 0 36 0;
#X connect 39 0 36 0;
#X connect 41 0 38 0;
#X connect 41 1 36 0;
#X connect 42 0 25 0;
#X connect 43 0 18 0;
#X restore 677 188 pd setup;
#X obj 320 348 pandabang show-add-multiple-items-win;
#N canvas 894 175 450 300 print-and-debug 0;
#X obj 115 74 r panda;
#X obj 70 129 print Panda says;
#X obj 115 99 spigot 0;
#X obj 184 34 r panda;
#X obj 184 59 route debug;
#X obj 184 84 tgl 15 0 empty empty empty 17 7 0 10 -262144 -1 -1 0
1;
#X text 138 10 DEBUGGING;
#X text 17 28 PANDA-PRINTER;
#X obj 16 50 r panda;
#X obj 16 75 route print;
#X connect 0 0 2 0;
#X connect 2 0 1 0;
#X connect 3 0 4 0;
#X connect 4 0 5 0;
#X connect 5 0 2 1;
#X connect 8 0 9 0;
#X connect 9 0 1 0;
#X restore 741 188 pd print-and-debug;
#N canvas 997 113 433 464 add-multiple-items-win 0;
#X obj 8 6 cnv 15 416 450 empty empty AddMultipleItems 5 30 2 50 -232576
-1 0;
#X text 12 74 at once. You can also use the "add"-message to Panda
to;
#X text 12 91 create items algorithmically.;
#X text 14 127 Add;
#X obj 299 198 pandanumber item-length 0 1e+37;
#X obj 215 128 pandasymbol item-name;
#X text 132 128 items named;
#X text 14 158 at y-position;
#X obj 112 155 pandanumber add-multiple-y;
#X text 202 158 ...;
#X text 206 230 and a gap of;
#X text 203 259 .;
#X obj 8 191 cnv 1 416 1 empty empty empty 20 12 0 14 -1 -66577 0;
#X obj 8 289 cnv 1 416 1 empty empty empty 20 12 0 14 -1 -66577 0;
#X obj 394 258 pandabang add-multiple1;
#X obj 42 124 pandanumber add-multiple-amount 0 1e+37;
#X text 393 240 add;
#X text 13 202 ...at timeline-position with a length of;
#X obj 298 227 pandanumber add-multiple1-gap 0 1e+37;
#X obj 113 227 pandanumber add-multiple1-length-inc;
#X obj 113 256 pandanumber add-multiple1-gap-inc;
#X text 13 230 increasing by;
#X text 13 258 increasing by;
#X obj 321 298 pandasymbol add-multiple2-xform;
#X text 13 299 ...computing their positions with expr-form;
#X text 14 322 and their lengths with expr-form;
#X obj 245 321 pandasymbol add-multiple2-lenform;
#X text 332 322 .;
#X obj 394 341 pandabang add-multiple2;
#X text 393 324 add;
#X text 12 345 ($f1 = new item n \, starting from 0);
#X obj 8 372 cnv 1 416 1 empty empty empty 20 12 0 14 -1 -66577 0;
#X obj 256 389 pandanumber item-length 0 1e+37;
#X text 345 393 .;
#X text 12 421 ...in random positions with random lengths.;
#X text 393 392 add;
#X text 393 422 add;
#X text 12 391 ...in random positions with length;
#X text 11 57 Some functions for adding multiple items to the timeline
;
#X obj 367 389 pandabang add-multiple-random1;
#X obj 367 418 pandabang add-multiple-random2;
#X restore 634 128 pd add-multiple-items-win;
#X obj 297 550 cnv 15 30 15 empty empty empty 20 12 0 14 -261234 -66577
0;
#X obj 300 568 pandatoggle record 13;
#X obj 420 568 pandabang browse-for-output-file;
#X obj 329 574 pandasymbol output-file;
#X obj 485 568 pandabang pandac~test;
#X obj 140 568 pandahslider volume 0 1;
#X obj 355 206 pandabang show-manual;
#X text 382 209 Manual;
#X text 547 329 AGENDA;
#X text 544 377 - PD algorithmen im Internet finden und umschreiben
;
#X obj 205 207 pandabang show-pandac~mixer;
#X text 232 210 Mixer;
#X obj 291 348 pandabang simple-add;
#X text 463 203 New;
#X text 462 216 Project;
#X text 134 211 Timeline;
#X obj 545 679 pandatoggle debug;
#X text 540 658 DEBUGGING ON;
#X obj 107 455 pandatoggle performance-mode 14;
#N canvas 896 442 916 549 performance-mode 0;
#N canvas 563 415 819 300 set-values-temporarily 0;
#X obj 24 19 r panda;
#X obj 24 69 sel 1 0;
#X obj 24 100 t b b;
#X obj 148 68 tgl 15 0 empty empty empty 17 7 0 10 -262144 -1 -1 0
1;
#X obj 24 44 route performance-mode show-timeline;
#X obj 112 119 f;
#X obj 111 163 nbx 5 14 -1e+37 1e+37 0 1 empty empty (state_saving)
0 -8 0 10 -262144 -1 -1 0 256;
#X msg 111 182 \; panda show-timeline \$1;
#X msg 23 221 \; panda show-timeline 0;
#X obj 304 19 r panda;
#X obj 304 69 sel 1 0;
#X obj 304 100 t b b;
#X obj 404 78 tgl 15 0 empty empty empty 17 7 0 10 -262144 -1 -1 1
1;
#X obj 392 119 f;
#X obj 391 163 nbx 5 14 -1e+37 1e+37 0 1 empty empty (state_saving)
0 -8 0 10 -262144 -1 -1 1 256;
#X obj 304 44 route performance-mode loop;
#X msg 391 182 \; panda loop \$1;
#X msg 303 221 \; panda loop 1;
#X connect 0 0 4 0;
#X connect 1 0 2 0;
#X connect 1 1 6 0;
#X connect 2 0 8 0;
#X connect 2 1 5 0;
#X connect 3 0 5 1;
#X connect 4 0 1 0;
#X connect 4 1 3 0;
#X connect 5 0 6 0;
#X connect 6 0 7 0;
#X connect 9 0 15 0;
#X connect 10 0 11 0;
#X connect 10 1 14 0;
#X connect 11 0 17 0;
#X connect 11 1 13 0;
#X connect 12 0 13 1;
#X connect 13 0 14 0;
#X connect 14 0 16 0;
#X connect 15 0 10 0;
#X connect 15 1 12 0;
#X restore 8 8 pd set-values-temporarily;
#N canvas 48 274 1096 739 make-scanline 0;
#X obj 45 42 r panda;
#X obj 80 108 bng 15 250 50 0 empty empty empty 17 7 0 10 -262144 -1
-1;
#X obj 439 64 r panda;
#X obj 45 139 nbx 5 14 -1e+37 1e+37 0 1 empty empty (state_saving)
0 -8 0 10 -262144 -1 -1 160.714 256;
#X obj 717 47 r panda;
#X text 42 25 GET SCANLINE POSITION;
#X text 439 41 CHANGE SCANLINE-LENGTH TO LENGTH;
#X text 713 24 HIDE SCANLINE WHEN NOT IN PERFORMANCE MODE;
#X obj 717 97 tgl 15 0 empty empty empty 17 7 0 10 -262144 -1 -1 1
1;
#X obj 717 117 sel 0 1;
#X obj 717 72 route performance-mode length;
#X obj 742 145 f;
#X obj 439 89 route length performance-mode;
#X obj 439 114 spigot;
#X obj 504 116 tgl 15 0 empty empty empty 17 7 0 10 -262144 -1 -1 1
1;
#X msg 727 172 \; scanline color 14 \; scanline vis_size \$1 1 \;;
#X msg 439 144 \; scanline vis_size \$1 1;
#X obj 717 249 f;
#X msg 717 282 \; scanline color 0 \; scanline vis_size 0 0 \;;
#X obj 111 163 f;
#X obj 45 158 t f b;
#X obj 45 203 pack;
#X obj 45 67 route scanline-position update-timeline length performance-mode
;
#X obj 111 188 *;
#X msg 45 229 \; scanline pos \$2 \$1;
#X obj 207 138 * -1;
#X text 185 225 (\$2 sets scanline out of project range when not in
performance mode to prevent white pixel);
#X floatatom 268 159 5 0 0 0 - - -;
#X obj 207 163 + 1;
#X connect 0 0 22 0;
#X connect 1 0 3 0;
#X connect 2 0 12 0;
#X connect 3 0 20 0;
#X connect 4 0 10 0;
#X connect 8 0 9 0;
#X connect 9 0 17 0;
#X connect 9 1 11 0;
#X connect 10 0 8 0;
#X connect 10 1 11 1;
#X connect 10 1 17 1;
#X connect 11 0 15 0;
#X connect 12 0 13 0;
#X connect 12 1 14 0;
#X connect 13 0 16 0;
#X connect 14 0 13 1;
#X connect 17 0 18 0;
#X connect 19 0 23 0;
#X connect 20 0 21 0;
#X connect 20 1 19 0;
#X connect 21 0 24 0;
#X connect 22 0 3 0;
#X connect 22 1 1 0;
#X connect 22 2 19 1;
#X connect 22 3 25 0;
#X connect 23 0 21 1;
#X connect 25 0 27 0;
#X connect 25 0 28 0;
#X connect 28 0 23 1;
#X restore 11 56 pd make-scanline;
#X text 10 33 SET SCANLINE;
#N canvas 117 571 450 300 inits 0;
#X obj 23 31 r panda;
#X obj 23 56 route performance-mode;
#X obj 23 81 tgl 15 0 empty empty empty 17 7 0 10 -262144 -1 -1 1 1
;
#X obj 23 106 bng 15 250 50 0 empty empty empty 17 7 0 10 -262144 -1
-1;
#X msg 23 131 \; panda play 0 \;;
#X connect 0 0 1 0;
#X connect 1 0 2 0;
#X connect 2 0 3 0;
#X connect 3 0 4 0;
#X restore 192 9 pd inits;
#X obj 13 124 r panda;
#X obj 13 149 route performance-mode;
#X obj 13 174 sel 0 1;
#X text 13 98 HIDE GUI PERFORMANCE-MODE-OPTIONS WHEN NOT IN MODE;
#X obj 406 124 r panda;
#X floatatom 406 194 5 0 0 0 - - -;
#X obj 406 149 route scanline-position-relative timeline-marker-height
performance-mode;
#X obj 406 218 *;
#X obj 593 206 tgl 15 0 empty empty empty 17 7 0 10 -262144 -1 -1 1
1;
#X obj 406 243 spigot;
#X msg 406 268 \; panda scanline-position \$1;
#X text 407 99 SET SCANLINE POSITION WITH GUI SLIDER;
#X msg 13 230 300 60;
#X msg 81 231 0 0;
#X msg 8 286 \; performance-setup-hide-cnv vis_size \$1 \$2;
#N canvas 811 444 771 553 midi-control 0;
#X obj 7 9 ctlin;
#X obj 23 39 ==;
#X obj 7 69 spigot;
#X obj 55 9 r panda;
#X obj 55 34 route midi-ctl-scanline;
#X obj 7 94 / 127;
#X msg 7 119 \; panda scanline-position-relative \$1;
#X obj 280 9 ctlin;
#X obj 296 39 ==;
#X obj 280 69 spigot;
#X obj 328 9 r panda;
#X obj 280 94 / 127;
#X obj 328 34 route midi-ctl-timeline length;
#X obj 280 119 *;
#X msg 280 144 \; panda timeline-position \$1;
#X obj 13 175 ctlin;
#X obj 29 205 ==;
#X obj 13 235 spigot;
#X obj 61 175 r panda;
#X obj 13 260 / 127;
#X msg 13 313 \; panda tempo \$1;
#X obj 13 285 *;
#X obj 61 200 route midi-ctl-tempo midi-ctl-max-tempo;
#X connect 0 0 2 0;
#X connect 0 1 1 0;
#X connect 1 0 2 1;
#X connect 2 0 5 0;
#X connect 3 0 4 0;
#X connect 4 0 1 1;
#X connect 5 0 6 0;
#X connect 7 0 9 0;
#X connect 7 1 8 0;
#X connect 8 0 9 1;
#X connect 9 0 11 0;
#X connect 10 0 12 0;
#X connect 11 0 13 0;
#X connect 12 0 8 1;
#X connect 12 1 13 1;
#X connect 13 0 14 0;
#X connect 15 0 17 0;
#X connect 15 1 16 0;
#X connect 16 0 17 1;
#X connect 17 0 19 0;
#X connect 18 0 22 0;
#X connect 19 0 21 0;
#X connect 21 0 20 0;
#X connect 22 0 16 1;
#X connect 22 1 21 1;
#X restore 191 54 pd midi-control;
#X text 188 32 CONTROL PERFORMANCE WITH MIDI;
#X obj 29 203 loadbang;
#X connect 4 0 5 0;
#X connect 5 0 6 0;
#X connect 6 0 16 0;
#X connect 6 1 17 0;
#X connect 8 0 10 0;
#X connect 9 0 11 0;
#X connect 10 0 9 0;
#X connect 10 1 11 1;
#X connect 10 2 12 0;
#X connect 11 0 13 0;
#X connect 12 0 13 1;
#X connect 13 0 14 0;
#X connect 16 0 18 0;
#X connect 17 0 18 0;
#X connect 21 0 16 0;
#X restore 543 264 pd performance-mode;
#X obj 226 456 pandahslider scanline-position-relative 0 1;
#X obj 381 456 pandanumber scanline-position 0 1e+37;
#X text 541 744 http://www.simonbahr.de/panda;
#X text 106 250 Timeline;
#X text 106 265 Position;
#X text 199 250 Tempo;
#X text 294 250 Length;
#X text 106 336 Item Name;
#X text 197 329 Item Length;
#X text 236 436 Scanline Position;
#X text 139 550 Volume;
#X text 297 547 Rec.;
#X text 331 557 Output File;
#X text 418 550 Browse;
#X text 453 566 Test;
#X text 446 579 Sound;
#X text 108 550 Mute;
#X text 424 265 Loop;
#X text 387 265 Play;
#X text 291 330 Add;
#X text 133 451 Performance;
#X text 133 465 Mode;
#N canvas 166 230 1489 850 quantise 0;
#X obj 486 97 r panda;
#X obj 486 122 route add-qline;
#X obj 581 208 pointer;
#X msg 574 174 traverse pd-main-win;
#X obj 486 150 t f b b;
#X obj 486 235 append qline x;
#N canvas 100 367 575 429 make-qline 0;
#X obj 84 170 tgl 15 0 empty empty empty 17 7 0 10 -262144 -1 -1 0
1;
#X obj 84 65 r panda;
#X obj 84 90 route show-qlines performance-mode;
#X obj 201 116 - 1;
#X obj 201 141 * -1;
#X obj 84 115 &&;
#X obj 201 166 bng 15 250 50 0 empty empty empty 17 7 0 10 -262144
-1 -1;
#X text 82 42 SHOW QLINES?;
#X obj 259 296 struct qline float x float len;
#X obj 354 55 r panda;
#X obj 354 80 route timeline-marker-height;
#X obj 354 160 t b f;
#X obj 354 261 set qline len;
#X obj 354 185 loopqlines;
#X msg 87 357 \; panda show-qlines 1;
#X obj 354 235 f;
#X obj 354 210 t b p;
#X obj 354 135 + 14;
#X msg 85 302 \; panda add-qline 200;
#X obj 354 105 f;
#X obj 385 105 r new-qline-created;
#X obj 84 199 drawpolygon -x 333 1 0 14 0 len;
#X obj 85 242 filledpolygon 999 999 1 -1 len 1 len;
#X connect 0 0 21 0;
#X connect 0 0 22 0;
#X connect 1 0 2 0;
#X connect 2 0 5 0;
#X connect 2 1 3 0;
#X connect 3 0 4 0;
#X connect 4 0 5 1;
#X connect 4 0 6 0;
#X connect 5 0 0 0;
#X connect 6 0 5 0;
#X connect 9 0 10 0;
#X connect 10 0 19 0;
#X connect 11 0 13 0;
#X connect 11 1 15 1;
#X connect 13 0 16 0;
#X connect 15 0 12 0;
#X connect 16 0 15 0;
#X connect 16 1 12 1;
#X connect 17 0 11 0;
#X connect 19 0 17 0;
#X connect 20 0 19 0;
#X restore 35 15 pd make-qline;
#X obj 34 71 r panda;
#X obj 34 323 set item x;
#N canvas 1284 271 545 745 get-new-position 0;
#X obj 24 25 inlet;
#X obj 24 62 get item x;
#X obj 24 168 get qline x;
#X obj 24 224 -;
#X obj 24 249 abs;
#X text 52 254 (dist qline item);
#X obj 78 387 sel 1;
#X obj 78 417 f;
#X text 107 417 (min dist);
#X obj 56 520 outlet;
#X obj 24 89 t b f b;
#X obj 130 58 r panda;
#X obj 130 83 route length;
#X obj 103 114 f;
#X obj 23 415 f;
#X obj 24 465 f;
#X obj 78 314 <;
#X obj 24 138 loopqlines;
#X obj 24 193 t f f;
#X obj 182 243 r panda;
#X obj 182 268 route qline-stickiness;
#X obj 24 274 t f f f;
#X obj 78 339 &&;
#X obj 135 310 <=;
#X obj 24 490 t b f;
#X obj 24 561 s quantise-next-item;
#X connect 0 0 1 0;
#X connect 1 0 10 0;
#X connect 1 0 15 1;
#X connect 2 0 18 0;
#X connect 3 0 4 0;
#X connect 4 0 21 0;
#X connect 6 0 7 0;
#X connect 6 0 14 0;
#X connect 7 0 16 1;
#X connect 10 0 17 0;
#X connect 10 1 3 1;
#X connect 10 2 13 0;
#X connect 11 0 12 0;
#X connect 12 0 13 1;
#X connect 13 0 16 1;
#X connect 14 0 15 1;
#X connect 15 0 24 0;
#X connect 16 0 22 0;
#X connect 17 0 2 0;
#X connect 17 1 15 0;
#X connect 18 0 3 0;
#X connect 18 1 14 1;
#X connect 19 0 20 0;
#X connect 20 0 23 1;
#X connect 21 0 16 0;
#X connect 21 1 7 1;
#X connect 21 2 23 0;
#X connect 22 0 6 0;
#X connect 23 0 22 1;
#X connect 24 0 25 0;
#X connect 24 1 9 0;
#X restore 34 286 pd get-new-position;
#X obj 34 254 t p p;
#X obj 34 96 route quantise;
#X obj 126 153 r quantise-next-item;
#X msg 34 126 traverse pd-main-win \, bang;
#X obj 34 152 pointer item;
#X text 33 50 QUANTISE;
#X msg 74 217 vnext \$1;
#X obj 126 178 f;
#X obj 181 197 r panda;
#X obj 181 222 route quantise-selected;
#X obj 75 186 bng 15 250 50 0 empty empty empty 17 7 0 10 -262144 -1
-1;
#X text 482 75 ADD MSG ADDS A QLINE TO TIMELINE;
#X obj 486 281 s new-qline-created;
#X obj 486 260 bng 15 250 50 0 empty empty empty 17 7 0 10 -262144
-1 -1;
#X obj 861 45 r panda;
#X obj 861 70 route delete-qline;
#X text 859 23 DELETE THE/ALL QLINES AT GIVEN POSITION:;
#X obj 861 198 get qline x;
#X obj 894 324 pointer;
#X msg 861 279 delete;
#X obj 861 148 t p p;
#X obj 861 95 t b f;
#X obj 861 223 ==;
#X obj 861 248 sel 1;
#X msg 1008 334 \; panda add-qline 500;
#X msg 1014 270 \; panda delete-qline 500;
#N canvas 113 310 1779 729 add-multiple-qlines 0;
#X obj 34 187 t f b;
#X obj 34 212 until;
#X obj 34 307 f;
#X floatatom 34 417 5 0 0 0 x - -;
#X obj 34 162 f;
#X obj 34 45 r panda;
#X text 31 18 add-multiple1;
#X obj 79 213 f;
#X obj 242 178 f;
#X obj 242 203 s add-multiple1-gap;
#X obj 355 133 f;
#X obj 355 157 s add-multiple1-gap-inc;
#X obj 108 282 f;
#X obj 108 346 +;
#X obj 81 386 +;
#X obj 145 253 r add-multiple1-gap;
#X obj 148 333 r add-multiple1-gap-inc;
#X obj 34 128 t b b;
#X obj 108 309 t f f;
#X obj 772 190 until;
#X obj 772 141 f;
#X obj 772 54 r panda;
#X text 769 27 add-multiple2;
#X msg 782 324 set \$1;
#X obj 782 299 symbol;
#X obj 772 166 t f b;
#X msg 804 215 0;
#X obj 772 215 f;
#X obj 790 240 + 1;
#X obj 772 266 t f f;
#X obj 772 353 expr-setable;
#X msg 34 455 \; panda add-qline \$1;
#X obj 34 239 t b b;
#X obj 34 70 route add-qlines1 add-qlines-amount timeline-position
add-qlines1-gap add-qlines1-gap-inc;
#X obj 772 79 route add-qlines2 add-qlines-amount add-qlines2-form
;
#X msg 772 497 \; panda add-qline \$1;
#X connect 0 0 1 0;
#X connect 0 1 7 0;
#X connect 1 0 32 0;
#X connect 2 0 3 0;
#X connect 2 0 14 0;
#X connect 3 0 31 0;
#X connect 4 0 0 0;
#X connect 5 0 33 0;
#X connect 7 0 2 1;
#X connect 8 0 9 0;
#X connect 10 0 11 0;
#X connect 12 0 18 0;
#X connect 13 0 12 1;
#X connect 14 0 2 1;
#X connect 15 0 12 1;
#X connect 16 0 13 1;
#X connect 17 0 4 0;
#X connect 17 1 10 0;
#X connect 17 1 8 0;
#X connect 18 0 13 0;
#X connect 18 1 14 1;
#X connect 19 0 27 0;
#X connect 20 0 25 0;
#X connect 21 0 34 0;
#X connect 23 0 30 0;
#X connect 24 0 23 0;
#X connect 25 0 19 0;
#X connect 25 1 26 0;
#X connect 26 0 27 1;
#X connect 27 0 28 0;
#X connect 27 0 29 0;
#X connect 28 0 27 1;
#X connect 29 0 30 0;
#X connect 30 0 35 0;
#X connect 32 0 2 0;
#X connect 32 1 12 0;
#X connect 33 0 17 0;
#X connect 33 1 4 1;
#X connect 33 2 7 1;
#X connect 33 3 8 1;
#X connect 33 4 10 1;
#X connect 34 0 20 0;
#X connect 34 1 20 1;
#X connect 34 2 24 0;
#X restore 481 15 pd add-multiple-qlines;
#X obj 1205 48 r panda;
#X obj 1205 73 route delete-all-qlines;
#X obj 1238 229 pointer;
#X msg 1205 184 delete;
#X obj 1205 153 t b p;
#X obj 861 123 loopqlines 5;
#X obj 1205 98 bng 15 250 50 0 empty empty empty 17 7 0 10 -262144
-1 -1;
#X obj 1205 128 loopqlines 50;
#X connect 0 0 1 0;
#X connect 1 0 4 0;
#X connect 2 0 5 1;
#X connect 3 0 2 0;
#X connect 4 0 5 0;
#X connect 4 1 2 0;
#X connect 4 2 3 0;
#X connect 5 0 23 0;
#X connect 7 0 11 0;
#X connect 9 0 8 0;
#X connect 10 0 9 0;
#X connect 10 1 8 1;
#X connect 11 0 13 0;
#X connect 12 0 17 0;
#X connect 13 0 14 0;
#X connect 14 0 10 0;
#X connect 14 1 20 0;
#X connect 16 0 14 0;
#X connect 17 0 16 0;
#X connect 18 0 19 0;
#X connect 19 0 17 1;
#X connect 20 0 17 0;
#X connect 23 0 22 0;
#X connect 24 0 25 0;
#X connect 25 0 31 0;
#X connect 27 0 32 0;
#X connect 29 0 28 0;
#X connect 30 0 27 0;
#X connect 30 1 28 0;
#X connect 31 0 42 0;
#X connect 31 1 32 1;
#X connect 32 0 33 0;
#X connect 33 0 29 0;
#X connect 37 0 38 0;
#X connect 38 0 43 0;
#X connect 40 0 39 0;
#X connect 41 0 40 0;
#X connect 41 1 39 0;
#X connect 42 0 30 0;
#X connect 43 0 44 0;
#X connect 44 0 41 0;
#X restore 542 288 pd quantise;
#X text 544 348 - performance-mode: midictrl-in;
#N canvas 48 96 435 683 performance-setup-win 0;
#X obj 8 6 cnv 15 416 666 empty empty Performance-Setup 0 30 2 50 -232576
-1 0;
#X obj 173 91 pandatoggle show-timeline;
#X obj 173 127 pandahslider timeline-marker-height 28 1080;
#X text 12 130 Timeline Marker Height;
#X text 12 61 Saving Panda.pd will automatically save all settings.
;
#X text 19 94 Show Numeric Timeline;
#X obj 327 228 pandanumber set-fade-in-duration 0 500;
#X obj 327 257 pandanumber set-fade-out-duration 0 500;
#X restore 817 127 pd performance-setup-win;
#N canvas 118 538 1406 466 performance-setup 0;
#X obj 39 16 r panda;
#X obj 39 153 nbx 5 14 -1e+37 1e+37 0 1 empty empty (state_saving_nbx)
0 -8 0 10 -262144 -1 -1 160.714 256;
#X obj 48 94 loadbang;
#X msg 39 67 set \$1;
#X obj 48 119 del 1;
#X obj 38 41 route scanline-position project-loadbang;
#X msg 39 175 \; panda scanline-position \$1;
#X connect 0 0 5 0;
#X connect 1 0 6 0;
#X connect 2 0 4 0;
#X connect 3 0 1 0;
#X connect 4 0 1 0;
#X connect 5 0 3 0;
#X connect 5 1 1 0;
#X restore 684 264 pd performance-setup;
#X obj 107 404 pandatoggle show-qlines;
#X text 134 399 Show;
#X text 134 412 Q-Lines;
#N canvas 985 174 440 439 quantise-win 0;
#N canvas 161 139 1600 906 sub 0;
#X obj 102 102 cnv 15 416 416 empty empty Quantisation 0 30 2 50 -232576
-1 0;
#X obj 267 286 pandanumber qline-stickiness;
#X obj 267 214 pandatoggle show-qlines;
#X text 176 217 Show Q-Lines;
#X text 189 253 Add Q-Line;
#X obj 708 192 r panda;
#X obj 267 250 pandabang add-qline-gui;
#X text 295 253 at position;
#X obj 708 217 route add-qline-gui add-qline-gui-position;
#X obj 380 250 pandanumber add-qline-gui-position;
#X obj 708 249 f;
#X msg 708 274 \; panda add-qline \$1;
#X text 110 288 Q-Line Stickiness (px);
#X obj 705 378 r panda;
#X obj 705 515 nbx 5 14 -1e+37 1e+37 0 1 empty empty (state_saving_nbx)
0 -8 0 10 -262144 -1 -1 100 256;
#X obj 714 456 loadbang;
#X msg 705 429 set \$1;
#X obj 714 481 del 1;
#X obj 704 403 route qline-stickiness project-loadbang;
#X msg 705 537 \; panda qline-stickiness \$1;
#X text 706 171 GUI ADD Q-LINE;
#X text 702 357 Remember Q-Line-Stickiness;
#X text 1009 357 Remember quantise-selected;
#X obj 1011 517 nbx 5 14 -1e+37 1e+37 0 1 empty empty (state_saving_nbx)
0 -8 0 10 -262144 -1 -1 0 256;
#X obj 1020 458 loadbang;
#X msg 1011 431 set \$1;
#X obj 1020 483 del 1;
#X obj 1010 405 route quantise-selected project-loadbang;
#X msg 1011 539 \; panda quantise-selected \$1;
#X obj 1010 378 r panda;
#X text 322 170 Only Selection;
#X obj 427 167 pandatoggle quantise-selected;
#X obj 1327 511 nbx 5 14 -1e+37 1e+37 0 1 empty empty (state_saving_nbx)
0 -8 0 10 -262144 -1 -1 1 256;
#X obj 1336 452 loadbang;
#X msg 1327 425 set \$1;
#X obj 1336 477 del 1;
#X obj 1326 372 r panda;
#X text 1325 351 Remember show-qlines;
#X obj 1326 399 route show-qlines project-loadbang;
#X msg 1327 533 \; panda show-qlines \$1;
#X obj 707 64 r panda;
#X text 706 39 OPEN QUANTISATION-WINDOW;
#X obj 707 89 route show-quantise-win;
#X msg 707 114 \; pd-quantise-win vis 1 \, editmode 0;
#X obj 207 167 pandabang quantise;
#X text 144 170 QUANTISE;
#X obj 102 202 cnv 1 416 1 empty empty empty 20 12 0 14 -1 -66577 0
;
#X text 107 336 Add;
#X text 296 398 .;
#X text 486 379 add;
#X text 106 397 increasing by;
#X text 106 448 ...computing their positions with expr-form;
#X text 486 467 add;
#X obj 102 323 cnv 1 416 1 empty empty empty 20 12 0 14 -1 -66577 0
;
#X obj 135 333 pandanumber add-qlines-amount;
#X text 225 337 qlines...;
#X obj 487 397 pandabang add-qlines1;
#X text 106 371 ...at timeline position with a gap of;
#X obj 372 367 pandanumber add-qlines1-gap;
#X obj 206 395 pandanumber add-qlines1-gap-inc;
#X obj 414 447 pandasymbol add-qlines2-form;
#X text 500 448 .;
#X text 105 468 ($f1 = new qline n \, starting from 0);
#X obj 102 433 cnv 1 416 1 empty empty empty 20 12 0 14 -1 -66577 0
;
#X obj 487 484 pandabang add-qlines2;
#X obj 309 554 pandanumber delete-qline-at;
#X obj 428 554 pandabang delete-qline-gui;
#X text 126 558 Delete Q-Line at position;
#X text 399 557 .;
#X text 456 556 delete;
#X obj 102 533 cnv 1 416 1 empty empty empty 20 12 0 14 -1 -66577 0
;
#X obj 128 587 pandabang delete-all-qlines;
#X text 158 589 delete all Q-Lines;
#X connect 5 0 8 0;
#X connect 8 0 10 0;
#X connect 8 1 10 1;
#X connect 10 0 11 0;
#X connect 13 0 18 0;
#X connect 14 0 19 0;
#X connect 15 0 17 0;
#X connect 16 0 14 0;
#X connect 17 0 14 0;
#X connect 18 0 16 0;
#X connect 18 1 14 0;
#X connect 23 0 28 0;
#X connect 24 0 26 0;
#X connect 25 0 23 0;
#X connect 26 0 23 0;
#X connect 27 0 25 0;
#X connect 27 1 23 0;
#X connect 29 0 27 0;
#X connect 32 0 39 0;
#X connect 33 0 35 0;
#X connect 34 0 32 0;
#X connect 35 0 32 0;
#X connect 36 0 38 0;
#X connect 38 0 34 0;
#X connect 38 1 32 0;
#X connect 40 0 42 0;
#X connect 42 0 43 0;
#X coords 0 -1 1 1 420 420 2 100 100;
#X restore 7 4 pd sub;
#X restore 993 127 pd quantise-win;
#X obj 215 431 cnv 5 1 1 empty performance-setup-hide-cnv empty 5 60
2 115 -232576 -1 0;
#X obj 198 404 pandabang show-quantise-win;
#X text 225 406 Quantise...;
#X text 544 362 - alte pd-objecte für Panda umschreiben?;
#X text 346 350 Add more...;
#N canvas 141 273 1779 729 add-multiple-items 0;
#X obj 34 187 t f b;
#X obj 34 212 until;
#X obj 34 267 f;
#X floatatom 34 417 5 0 0 0 x - -;
#X obj 85 477 r panda;
#X obj 34 551 pack f f f s;
#X obj 34 162 f;
#X obj 34 45 r panda;
#X text 31 18 add-multiple1;
#X obj 79 213 f;
#X text 125 551 x \, y \, len \, name;
#X msg 34 575 \; panda add \$4 \$3 \$1 \$2;
#X obj 188 526 symbol;
#X obj 185 177 f;
#X obj 242 178 f;
#X obj 102 281 f;
#X obj 242 203 s add-multiple1-gap;
#X obj 34 70 route add-multiple1 add-multiple-amount timeline-position
item-length add-multiple1-gap add-multiple1-length-inc add-multiple1-gap-inc
;
#X obj 298 133 f;
#X obj 355 133 f;
#X obj 355 157 s add-multiple1-gap-inc;
#X obj 185 226 s add-multiple1-length;
#X obj 298 179 s add-multiple1-length-inc;
#X obj 145 307 r add-multiple1-length-inc;
#X obj 102 336 +;
#X obj 139 252 r add-multiple1-length;
#X obj 341 284 f;
#X obj 341 339 +;
#X obj 45 393 +;
#X obj 378 255 r add-multiple1-gap;
#X obj 381 335 r add-multiple1-gap-inc;
#X obj 133 390 +;
#X obj 85 502 route add-multiple-y item-name;
#X obj 34 128 t b b;
#X obj 34 239 t b b b;
#X obj 341 311 t f f;
#X obj 102 306 t f f;
#X obj 772 190 until;
#X obj 772 141 f;
#X obj 772 54 r panda;
#X text 769 27 add-multiple2;
#X msg 782 324 set \$1;
#X obj 782 299 symbol;
#X msg 919 324 set \$1;
#X obj 919 299 symbol;
#X obj 772 166 t f b;
#X msg 804 215 0;
#X obj 772 215 f;
#X obj 790 240 + 1;
#X obj 823 399 r panda;
#X obj 772 473 pack f f f s;
#X text 863 473 x \, y \, len \, name;
#X msg 772 497 \; panda add \$4 \$3 \$1 \$2;
#X obj 926 448 symbol;
#X obj 823 424 route add-multiple-y item-name;
#X obj 772 266 t f f;
#X obj 772 353 expr-setable;
#X obj 909 353 expr-setable;
#X obj 772 79 route add-multiple2 add-multiple-amount add-multiple2-xform
add-multiple2-lenform;
#X text 1305 36 add-multiple-random1;
#X text 1293 292 add-multiple-random2;
#X obj 1311 66 r panda;
#X obj 1311 186 random;
#X obj 1311 211 pack f f f s;
#X text 1402 213 x \, y \, len \, name;
#X msg 1311 237 \; panda add \$4 \$3 \$1 \$2;
#X obj 1311 91 route add-multiple-random1 add-multiple-amount length
item-length add-multiple-y item-name;
#X obj 1311 131 f;
#X obj 1311 156 until;
#X obj 1482 175 symbol;
#X obj 1309 328 r panda;
#X obj 1309 468 random;
#X obj 1309 493 pack f f f s;
#X text 1400 495 x \, y \, len \, name;
#X msg 1309 519 \; panda add \$4 \$3 \$1 \$2;
#X obj 1309 393 f;
#X obj 1309 418 until;
#X obj 1480 437 symbol;
#X obj 1597 439 t b f;
#X obj 1597 473 /;
#X obj 1492 472 random;
#X obj 1309 443 t b b;
#X obj 1309 353 route add-multiple-random2 add-multiple-amount length
add-multiple-y item-name;
#X connect 0 0 1 0;
#X connect 0 1 9 0;
#X connect 1 0 34 0;
#X connect 2 0 3 0;
#X connect 2 0 28 0;
#X connect 3 0 5 0;
#X connect 4 0 32 0;
#X connect 5 0 11 0;
#X connect 6 0 0 0;
#X connect 7 0 17 0;
#X connect 9 0 2 1;
#X connect 12 0 5 3;
#X connect 13 0 21 0;
#X connect 14 0 16 0;
#X connect 15 0 36 0;
#X connect 17 0 33 0;
#X connect 17 1 6 1;
#X connect 17 2 9 1;
#X connect 17 3 13 1;
#X connect 17 4 14 1;
#X connect 17 5 18 1;
#X connect 17 6 19 1;
#X connect 18 0 22 0;
#X connect 19 0 20 0;
#X connect 23 0 24 1;
#X connect 24 0 15 1;
#X connect 25 0 15 1;
#X connect 26 0 35 0;
#X connect 27 0 26 1;
#X connect 28 0 2 1;
#X connect 29 0 26 1;
#X connect 30 0 27 1;
#X connect 31 0 28 1;
#X connect 32 0 5 1;
#X connect 32 1 12 0;
#X connect 33 0 6 0;
#X connect 33 1 19 0;
#X connect 33 1 18 0;
#X connect 33 1 14 0;
#X connect 33 1 13 0;
#X connect 34 0 2 0;
#X connect 34 1 15 0;
#X connect 34 2 26 0;
#X connect 35 0 27 0;
#X connect 35 1 31 1;
#X connect 36 0 24 0;
#X connect 36 1 31 0;
#X connect 36 1 5 2;
#X connect 37 0 47 0;
#X connect 38 0 45 0;
#X connect 39 0 58 0;
#X connect 41 0 56 0;
#X connect 42 0 41 0;
#X connect 43 0 57 0;
#X connect 44 0 43 0;
#X connect 45 0 37 0;
#X connect 45 1 46 0;
#X connect 46 0 47 1;
#X connect 47 0 48 0;
#X connect 47 0 55 0;
#X connect 48 0 47 1;
#X connect 49 0 54 0;
#X connect 50 0 52 0;
#X connect 53 0 50 3;
#X connect 54 0 50 1;
#X connect 54 1 53 0;
#X connect 55 0 56 0;
#X connect 55 1 57 0;
#X connect 56 0 50 0;
#X connect 57 0 50 2;
#X connect 58 0 38 0;
#X connect 58 1 38 1;
#X connect 58 2 42 0;
#X connect 58 3 44 0;
#X connect 61 0 66 0;
#X connect 62 0 63 0;
#X connect 63 0 65 0;
#X connect 66 0 67 0;
#X connect 66 1 67 1;
#X connect 66 2 62 1;
#X connect 66 3 63 2;
#X connect 66 4 63 1;
#X connect 66 5 69 0;
#X connect 67 0 68 0;
#X connect 68 0 62 0;
#X connect 69 0 63 3;
#X connect 70 0 82 0;
#X connect 71 0 72 0;
#X connect 72 0 74 0;
#X connect 75 0 76 0;
#X connect 76 0 81 0;
#X connect 77 0 72 3;
#X connect 78 0 79 0;
#X connect 78 1 79 1;
#X connect 79 0 80 1;
#X connect 80 0 72 2;
#X connect 81 0 71 0;
#X connect 81 1 80 0;
#X connect 82 0 75 0;
#X connect 82 1 75 1;
#X connect 82 1 78 0;
#X connect 82 2 71 1;
#X connect 82 2 79 0;
#X connect 82 3 72 1;
#X connect 82 4 77 0;
#X restore 600 213 pd add-multiple-items;
#X coords 0 -1 1 1 420 670 2 100 100;
#X restore 5 2 pd Panda;
