#N canvas 544 224 475 394 12;
#X obj 19 18 item \$1;
#X obj 118 18 loadbang;
#X msg 118 43 args;
#X obj 118 68 pdcontrol;
#X obj 119 94 list split 1;
#X obj 159 155 list split 1;
#X msg 159 248 \; panda \$1-active \$2;
#X obj 258 194 f;
#X obj 159 180 t s b;
#X obj 159 210 pack s f;
#X obj 271 26 list;
#X obj 271 51 t a a;
#X obj 325 74 list length;
#X obj 325 99 > 0;
#X obj 325 124 tgl 15 0 empty empty empty 17 7 0 10 -262144 -1 -1 0
1;
#X obj 271 95 spigot;
#X obj 159 121 list;
#X obj 19 80 s \$0-active;
#X obj 182 19 r \$0-active;
#X obj 19 43 tgl 15 0 empty empty empty 17 7 0 10 -262144 -1 -1 0 1
;
#X obj 182 44 t b f;
#X connect 0 0 19 0;
#X connect 1 0 2 0;
#X connect 2 0 3 0;
#X connect 3 0 4 0;
#X connect 4 1 16 1;
#X connect 5 0 8 0;
#X connect 5 1 10 0;
#X connect 7 0 9 1;
#X connect 8 0 9 0;
#X connect 8 1 7 0;
#X connect 9 0 6 0;
#X connect 10 0 11 0;
#X connect 11 0 15 0;
#X connect 11 1 12 0;
#X connect 12 0 13 0;
#X connect 13 0 14 0;
#X connect 14 0 15 1;
#X connect 15 0 5 0;
#X connect 16 0 5 0;
#X connect 18 0 20 0;
#X connect 19 0 17 0;
#X connect 20 0 16 0;
#X connect 20 1 7 1;
