#N canvas 1245 112 665 622 12;
#X obj 78 265 item \$1;
#X obj 30 291 spigot;
#X obj 30 316 s \$1;
#X obj 250 90 loadbang;
#X msg 250 145 args;
#X obj 250 170 pdcontrol;
#X obj 250 195 list length;
#X obj 250 220 - 1;
#X text 276 221 numbers amount;
#N canvas 211 621 450 173 \$0-sub 0;
#N canvas 0 50 450 300 2-rorf 0;
#X obj 0 0 loadbang;
#X obj 0 30 rorf \$2;
#X obj 0 60 s 1601-outlet;
#X obj 0 0 loadbang;
#X obj 0 30 rorf $\\\$1;
#X obj 0 60 s 1222-outlet;
#X obj 0 0 loadbang;
#X obj 0 30 rorf $\\\$1;
#X obj 0 60 s 1263-outlet;
#X connect 0 0 1 0;
#X connect 0 0 1 0;
#X connect 0 0 1 0;
#X connect 1 0 2 0;
#X connect 1 0 2 0;
#X connect 1 0 2 0;
#X restore 2 2 pd 2-rorf;
#N canvas 0 50 450 300 3-rorf 0;
#X obj 0 0 loadbang;
#X obj 0 30 rorf \$3;
#X obj 0 60 s 1601-outlet;
#X obj 0 0 loadbang;
#X obj 0 30 rorf $\\\$1;
#X obj 0 60 s 1222-outlet;
#X obj 0 0 loadbang;
#X obj 0 30 rorf $\\\$1;
#X obj 0 60 s 1263-outlet;
#X connect 0 0 1 0;
#X connect 0 0 1 0;
#X connect 0 0 1 0;
#X connect 1 0 2 0;
#X connect 1 0 2 0;
#X connect 1 0 2 0;
#X restore 3 3 pd 3-rorf;
#N canvas 0 50 450 300 4-rorf 0;
#X obj 0 0 loadbang;
#X obj 0 30 rorf \$4;
#X obj 0 60 s 1601-outlet;
#X obj 0 0 loadbang;
#X obj 0 30 rorf $\\\$1;
#X obj 0 60 s 1222-outlet;
#X obj 0 0 loadbang;
#X obj 0 30 rorf $\\\$1;
#X obj 0 60 s 1263-outlet;
#X connect 0 0 1 0;
#X connect 0 0 1 0;
#X connect 0 0 1 0;
#X connect 1 0 2 0;
#X connect 1 0 2 0;
#X connect 1 0 2 0;
#X restore 4 4 pd 4-rorf;
#N canvas 0 50 450 300 5-rorf 0;
#X obj 0 0 loadbang;
#X obj 0 30 rorf \$5;
#X obj 0 60 s 1601-outlet;
#X obj 0 0 loadbang;
#X obj 0 30 rorf $\\\$1;
#X obj 0 60 s 1222-outlet;
#X obj 0 0 loadbang;
#X obj 0 30 rorf $\\\$1;
#X obj 0 60 s 1263-outlet;
#X connect 0 0 1 0;
#X connect 0 0 1 0;
#X connect 0 0 1 0;
#X connect 1 0 2 0;
#X connect 1 0 2 0;
#X connect 1 0 2 0;
#X restore 5 5 pd 5-rorf;
#N canvas 0 50 450 300 2-rorf 0;
#X obj 0 0 loadbang;
#X obj 0 30 rorf $\\\$1;
#X obj 0 60 s 1222-outlet;
#X obj 0 0 loadbang;
#X obj 0 30 rorf $\\\$1;
#X obj 0 60 s 1263-outlet;
#X connect 0 0 1 0;
#X connect 0 0 1 0;
#X connect 1 0 2 0;
#X connect 1 0 2 0;
#X restore 2 2 pd 2-rorf;
#N canvas 0 50 450 300 3-rorf 0;
#X obj 0 0 loadbang;
#X obj 0 30 rorf $\\\$1;
#X obj 0 60 s 1222-outlet;
#X obj 0 0 loadbang;
#X obj 0 30 rorf $\\\$1;
#X obj 0 60 s 1263-outlet;
#X connect 0 0 1 0;
#X connect 0 0 1 0;
#X connect 1 0 2 0;
#X connect 1 0 2 0;
#X restore 3 3 pd 3-rorf;
#N canvas 0 50 450 300 4-rorf 0;
#X obj 0 0 loadbang;
#X obj 0 30 rorf $\\\$1;
#X obj 0 60 s 1222-outlet;
#X obj 0 0 loadbang;
#X obj 0 30 rorf $\\\$1;
#X obj 0 60 s 1263-outlet;
#X connect 0 0 1 0;
#X connect 0 0 1 0;
#X connect 1 0 2 0;
#X connect 1 0 2 0;
#X restore 4 4 pd 4-rorf;
#N canvas 0 50 450 300 5-rorf 0;
#X obj 0 0 loadbang;
#X obj 0 30 rorf $\\\$1;
#X obj 0 60 s 1222-outlet;
#X obj 0 0 loadbang;
#X obj 0 30 rorf $\\\$1;
#X obj 0 60 s 1263-outlet;
#X connect 0 0 1 0;
#X connect 0 0 1 0;
#X connect 1 0 2 0;
#X connect 1 0 2 0;
#X restore 5 5 pd 5-rorf;
#N canvas 0 50 450 300 2-rorf 0;
#X obj 0 0 loadbang;
#X obj 0 30 rorf $\\\$1;
#X obj 0 60 s 1263-outlet;
#X connect 0 0 1 0;
#X connect 1 0 2 0;
#X restore 2 2 pd 2-rorf;
#N canvas 0 50 450 300 3-rorf 0;
#X obj 0 0 loadbang;
#X obj 0 30 rorf $\\\$1;
#X obj 0 60 s 1263-outlet;
#X connect 0 0 1 0;
#X connect 1 0 2 0;
#X restore 3 3 pd 3-rorf;
#N canvas 0 50 450 300 4-rorf 0;
#X obj 0 0 loadbang;
#X obj 0 30 rorf $\\\$1;
#X obj 0 60 s 1263-outlet;
#X connect 0 0 1 0;
#X connect 1 0 2 0;
#X restore 4 4 pd 4-rorf;
#N canvas 0 50 450 300 5-rorf 0;
#X obj 0 0 loadbang;
#X obj 0 30 rorf $\\\$1;
#X obj 0 60 s 1263-outlet;
#X connect 0 0 1 0;
#X connect 1 0 2 0;
#X restore 5 5 pd 5-rorf;
#X restore 416 366 pd \$0-sub;
#X obj 389 226 f \$0;
#X obj 250 115 t b b;
#X obj 250 382 pack;
#X obj 250 245 t f b;
#X obj 250 270 until;
#X obj 250 295 f;
#X obj 250 320 + 1;
#X msg 295 268 1;
#X obj 30 236 r \$0-outlet;
#X floatatom 30 261 5 0 0 0 - - -;
#X msg 250 411 \; pd-\$2-sub obj \$1 \$1 pd \$1-rorf \; pd-\$1-rorf
vis 0 \; pd-\$1-rorf obj 0 0 loadbang \; pd-\$1-rorf obj 0 30 rorf
$\\\$1 \; pd-\$1-rorf obj 0 60 s \$2-outlet \; pd-\$1-rorf connect
0 0 1 0 \; pd-\$1-rorf connect 1 0 2 0 \; pd-\$2-sub loadbang \;;
#X text 29 13 Args: name/send-to \, any number of receive-names or
floats;
#X connect 0 0 1 1;
#X connect 1 0 2 0;
#X connect 3 0 11 0;
#X connect 4 0 5 0;
#X connect 5 0 6 0;
#X connect 6 0 7 0;
#X connect 7 0 13 0;
#X connect 10 0 12 1;
#X connect 11 0 4 0;
#X connect 11 1 10 0;
#X connect 12 0 20 0;
#X connect 13 0 14 0;
#X connect 13 1 17 0;
#X connect 14 0 15 0;
#X connect 15 0 16 0;
#X connect 16 0 15 1;
#X connect 16 0 12 0;
#X connect 17 0 15 1;
#X connect 18 0 19 0;
#X connect 19 0 1 0;
