#N canvas 878 223 773 523 10;
#X obj 21 22 hsl 299 15 0 1 0 0 \$0-ctrl1 \$0-inlet-ctrl1 1 -2 8 0
10 -16662 -257985 -257985 0 1;
#X obj 21 58 hsl 299 15 0 1 0 0 \$0-ctrl2 \$0-inlet-ctrl2 2 -2 8 0
10 -167937 -257985 -257985 0 1;
#N canvas 354 270 1386 741 sub_______________ 0;
#X obj 661 393 samphold~;
#X floatatom 282 291 5 0 0 0 - - -;
#X floatatom 660 298 5 0 0 0 - - -;
#X obj 600 755 outlet~;
#X obj 14 12 inlet~;
#X obj 319 131 hsl 200 15 0.1 100000 1 0 empty empty empty -2 -8 0
10 -262144 -1 -1 0 1;
#X obj 601 291 phasor~;
#X obj 178 131 hsl 128 15 0 1 0 0 empty empty empty -2 -8 0 10 -262144
-1 -1 0 1;
#X obj 175 151 + 1;
#X obj 175 195 bng 15 250 50 0 empty empty empty 17 7 0 10 -262144
-1 -1;
#X obj 370 459 hsl 200 15 1000 200 1 0 empty empty empty -2 -8 0 10
-262144 -1 -1 19900 1;
#X obj 600 613 hip~ 1;
#X obj 749 521 sig~ 1;
#X obj 749 544 -~;
#X obj 799 523 cos~;
#X obj 600 574 *~;
#X obj 817 312 +~ 0.5;
#X obj 817 335 wrap~;
#X obj 817 358 *~ -1;
#X obj 817 386 +~ 1;
#X obj 871 470 samphold~;
#X obj 846 572 *~;
#X obj 921 556 sig~ 1;
#X obj 921 579 -~;
#X obj 971 558 cos~;
#X obj 921 602 *~ 0.5;
#X msg 660 320 \$1 10;
#X obj 660 343 line~;
#X obj 844 498 *~;
#X obj 600 453 *~;
#X obj 601 352 *~ -1;
#X obj 601 375 +~ 1;
#X obj 749 567 *~ 0.5;
#X obj 367 412 expr $f1*800+200;
#X floatatom 367 435 10 0 0 0 - - -;
#X floatatom 554 133 10 0 0 0 - - -;
#X obj 318 101 expr $f1 * $f1 * $f1 * $f1 * $f1 * $f1 * $f1 * $f1 *
100000;
#X obj 282 211 expr $f1 + ($f1 * $f2);
#X floatatom 282 234 5 0 0 0 - - -;
#X floatatom 175 174 5 0 0 0 - - -;
#X obj 242 234 - 2;
#X obj 15 35 delwrite~ \$0_del 1000;
#X obj 107 151 s \$0_ctl1b, f 8;
#X obj 601 165 r \$0_ctl1;
#X obj 845 525 vd~ \$0_del;
#X obj 283 313 s \$0_ctl1;
#X obj 660 267 r \$0_ctl2;
#X obj 601 501 vd~ \$0_del;
#X obj 367 482 s \$0_ctl2;
#X obj 327 161 s \$0_ctl1a;
#X obj 315 73 r \$0-ctrl1;
#X obj 209 71 r \$0-ctrl1-fine;
#X obj 367 366 r \$0-ctrl2;
#X connect 0 0 29 1;
#X connect 1 0 45 0;
#X connect 2 0 26 0;
#X connect 4 0 41 0;
#X connect 5 0 37 0;
#X connect 5 0 49 0;
#X connect 6 0 0 1;
#X connect 6 0 14 0;
#X connect 6 0 30 0;
#X connect 6 0 16 0;
#X connect 7 0 8 0;
#X connect 7 0 42 0;
#X connect 8 0 9 0;
#X connect 8 0 37 1;
#X connect 8 0 39 0;
#X connect 9 0 37 0;
#X connect 10 0 48 0;
#X connect 11 0 3 0;
#X connect 12 0 13 0;
#X connect 13 0 32 0;
#X connect 14 0 13 1;
#X connect 15 0 11 0;
#X connect 16 0 17 0;
#X connect 17 0 18 0;
#X connect 17 0 24 0;
#X connect 17 0 20 1;
#X connect 18 0 19 0;
#X connect 19 0 28 0;
#X connect 20 0 28 1;
#X connect 21 0 11 0;
#X connect 22 0 23 0;
#X connect 23 0 25 0;
#X connect 24 0 23 1;
#X connect 25 0 21 1;
#X connect 26 0 27 0;
#X connect 27 0 0 0;
#X connect 27 0 20 0;
#X connect 28 0 44 0;
#X connect 29 0 47 0;
#X connect 30 0 31 0;
#X connect 31 0 29 0;
#X connect 32 0 15 1;
#X connect 33 0 34 0;
#X connect 34 0 10 0;
#X connect 36 0 5 0;
#X connect 36 0 35 0;
#X connect 37 0 38 0;
#X connect 37 0 40 0;
#X connect 40 0 1 0;
#X connect 43 0 6 0;
#X connect 44 0 21 0;
#X connect 46 0 2 0;
#X connect 47 0 15 0;
#X connect 50 0 36 0;
#X connect 51 0 7 0;
#X connect 52 0 33 0;
#X restore 12 123 pd sub_______________;
#N canvas 47 73 450 300 init 0;
#X obj 108 77 loadbang;
#X msg 108 100 1;
#X obj 108 123 s killing-me-grainy_init_1;
#X connect 0 0 1 0;
#X connect 1 0 2 0;
#X restore 40 457 pd init;
#X text 361 3 GRAINY GLITCHER;
#X text 361 18 A pitch-shifting granulator full of lovely mistakes
and aliasing.;
#X text 14 358 INITS:;
#X text 389 119 Arguments:;
#X text 14 235 INLETS:;
#X obj 72 295 s \$0-inlet-ctrl1;
#X obj 180 294 s \$0-inlet-ctrl1-fine;
#X obj 318 298 s \$0-inlet-ctrl2;
#X obj 137 423 loadbang;
#X obj 137 469 s \$0-inlet-ctrl1;
#X obj 247 420 loadbang;
#X obj 247 466 s \$0-inlet-ctrl1-fine;
#X obj 386 422 loadbang;
#X obj 386 468 s \$0-inlet-ctrl2;
#X obj 465 305 s \$0-inlet-on-off;
#X obj 505 417 loadbang;
#X msg 505 440 1;
#X obj 505 463 s \$0-inlet-on-off;
#X obj 247 443 f \$2;
#X obj 386 445 f \$3;
#X obj 80 203 switch~;
#N canvas 40 91 1602 880 soundfile_playback 0;
#X obj 176 237 soundfiler;
#X obj 236 190 \$0;
#X obj 176 190 pack s 0;
#X obj 330 938 outlet~;
#X obj 330 908 *~;
#X obj 237 801 line~;
#X obj 222 6 table sampler-\$0-sample-array;
#X text 15 38 Inlets:;
#X text 93 37 Tgl-Play (0/1);
#X text 93 66 Playback-Speed (1 = original speed and pitch);
#X text 16 4 Abstraction for sample playback;
#X msg 176 212 read -resize \$1 sampler-\$2-sample-array;
#X obj 35 276 inlet;
#X obj 35 299 tgl 15 0 empty empty empty 17 7 0 10 -262144 -1 -1 0
1;
#X text 91 82 Tgl-Reverse (0/1);
#X obj 818 505 inlet;
#X text 813 482 reverse;
#X obj 818 533 tgl 15 0 empty empty empty 17 7 0 10 -262144 -1 -1 0
1;
#X floatatom 466 332 10 0 0 0 - - -;
#X obj 711 299 samplerate~;
#X obj 711 277 r pd-dsp-started;
#X floatatom 711 322 5 0 0 0 - - -;
#X obj 346 410 metro 20;
#X obj 346 433 f 0;
#X obj 346 471 +;
#X floatatom 346 495 10 0 0 0 - - -;
#X msg 309 409 0;
#X obj 346 517 mod;
#X floatatom 346 538 10 0 0 0 - - -;
#X obj 347 662 line~;
#X msg 347 641 \$1 20;
#X obj 711 345 * 0.02;
#X floatatom 711 408 5 0 0 0 - - -;
#X floatatom 765 344 5 0 0 0 - - -;
#X obj 711 380 * 1;
#X obj 765 413 bng 15 250 50 0 empty empty empty 17 7 0 10 -262144
-1 -1;
#X obj 419 868 line~;
#X msg 237 778 \$1 10;
#X obj 346 691 tabread4~ sampler-\$0-sample-array;
#X obj 419 766 >;
#X floatatom 419 729 10 0 0 0 - - -;
#X obj 449 752 pipe 2;
#X obj 765 321 inlet;
#X text 804 327 speed;
#X floatatom 765 389 5 0 0 0 - - -;
#X obj 765 366 moses 0.05;
#X obj 176 494 bng 15 250 50 0 empty empty empty 17 7 0 10 -262144
-1 -1;
#X msg 176 514 0 10;
#X obj 176 537 line~;
#X msg 222 514 1 10;
#X obj 241 492 loadbang;
#X obj 346 714 *~;
#X obj 196 492 del 20;
#X obj 344 883 *~;
#X obj 413 529 expr abs($f1 - $f2);
#X floatatom 413 552 5 0 0 0 - - -;
#X obj 346 598 decide;
#X obj 465 380 div;
#X obj 465 425 *;
#X floatatom 465 448 10 0 0 0 - - -;
#X obj 431 477 sel;
#X obj 431 500 bng 15 250 50 0 empty empty empty 17 7 0 10 -262144
-1 -1;
#X obj 465 470 int;
#X obj 465 402 - 2;
#X msg 456 845 1 20;
#X obj 706 829 bng 15 250 50 0 empty empty empty 17 7 0 10 -262144
-1 -1;
#X obj 419 790 sel 0;
#X obj 419 813 bng 15 250 50 0 empty empty empty 17 7 0 10 -262144
-1 -1;
#X obj 346 620 pipe 10;
#X obj 302 586 sel 0;
#X msg 302 609 0;
#X obj 495 826 del 30;
#X msg 419 845 0 10;
#X obj 773 861 1 20;
#X msg 706 849 0 5;
#X obj 773 838 del 60;
#X obj 179 103 loadbang;
#X text 15 21 Creation Arg: Path to file;
#X text 93 51 Path to file (if set to NONE \, the array is cleared)
;
#X obj 177 158 symbol \$1;
#X obj 179 126 t b b;
#X msg 1086 345 44100 1000;
#X text 1164 344 play from 44100 through 45099 (1000 samples);
#X msg 1093 370 stop;
#X text 1129 371 stop playing (outputs zeros when stopped);
#X obj 1163 424 bng 15 250 50 0 empty empty empty 17 7 0 10 -262144
-1 -1;
#X text 1181 423 <= bang when finished playing the table;
#X obj 1054 397 tabplay~ sampler-\$0-sample-array;
#X connect 0 0 18 0;
#X connect 1 0 2 1;
#X connect 2 0 11 0;
#X connect 4 0 3 0;
#X connect 5 0 4 0;
#X connect 11 0 0 0;
#X connect 11 0 46 0;
#X connect 12 0 13 0;
#X connect 13 0 37 0;
#X connect 13 0 26 0;
#X connect 13 0 22 0;
#X connect 15 0 17 0;
#X connect 17 0 56 2;
#X connect 17 0 65 0;
#X connect 18 0 27 1;
#X connect 18 0 54 1;
#X connect 18 0 57 0;
#X connect 19 0 21 0;
#X connect 20 0 19 0;
#X connect 21 0 31 0;
#X connect 22 0 23 0;
#X connect 23 0 24 0;
#X connect 24 0 25 0;
#X connect 24 0 23 1;
#X connect 25 0 27 0;
#X connect 26 0 23 1;
#X connect 26 0 25 0;
#X connect 27 0 28 0;
#X connect 28 0 40 0;
#X connect 28 0 54 0;
#X connect 28 0 56 0;
#X connect 28 0 60 0;
#X connect 28 0 69 0;
#X connect 29 0 38 0;
#X connect 30 0 29 0;
#X connect 31 0 34 0;
#X connect 32 0 24 1;
#X connect 32 0 57 1;
#X connect 32 0 58 1;
#X connect 33 0 45 0;
#X connect 34 0 32 0;
#X connect 35 0 34 0;
#X connect 36 0 53 1;
#X connect 37 0 5 0;
#X connect 38 0 51 0;
#X connect 39 0 66 0;
#X connect 40 0 39 0;
#X connect 40 0 41 0;
#X connect 41 0 39 1;
#X connect 42 0 33 0;
#X connect 44 0 34 1;
#X connect 44 0 35 0;
#X connect 45 1 44 0;
#X connect 46 0 47 0;
#X connect 46 0 52 0;
#X connect 47 0 48 0;
#X connect 48 0 51 1;
#X connect 49 0 48 0;
#X connect 50 0 49 0;
#X connect 51 0 53 0;
#X connect 52 0 49 0;
#X connect 52 0 26 0;
#X connect 53 0 4 1;
#X connect 54 0 55 0;
#X connect 55 0 56 1;
#X connect 56 0 68 0;
#X connect 57 0 63 0;
#X connect 58 0 59 0;
#X connect 59 0 62 0;
#X connect 60 0 61 0;
#X connect 62 0 60 1;
#X connect 63 0 58 0;
#X connect 64 0 36 0;
#X connect 65 0 74 0;
#X connect 65 0 75 0;
#X connect 66 0 67 0;
#X connect 67 0 72 0;
#X connect 67 0 71 0;
#X connect 68 0 30 0;
#X connect 69 0 70 0;
#X connect 70 0 29 0;
#X connect 71 0 64 0;
#X connect 72 0 36 0;
#X connect 73 0 36 0;
#X connect 74 0 36 0;
#X connect 75 0 73 0;
#X connect 76 0 80 0;
#X connect 79 0 2 0;
#X connect 80 0 79 0;
#X connect 80 1 1 0;
#X connect 81 0 87 0;
#X connect 83 0 87 0;
#X connect 87 1 85 0;
#X restore 11 88 pd soundfile_playback;
#X obj 11 171 pandaswitch~;
#X obj 81 146 item \$1;
#X obj 11 205 pandac~ \$1;
#X text 437 163 - Control Parameter 1 (0-1);
#X text 437 179 - Control Parameter 2 (0-1);
#X text 437 135 - name;
#X text 437 149 - path to wav file;
#X text 437 194 - Offset in ms (default: 0);
#X text 437 210 - Loop Duration in ms (default: until end of soundfile)
;
#X connect 2 0 26 0;
#X connect 14 0 22 0;
#X connect 16 0 23 0;
#X connect 19 0 20 0;
#X connect 20 0 21 0;
#X connect 22 0 15 0;
#X connect 23 0 17 0;
#X connect 26 0 28 0;
#X connect 26 0 28 1;
#X connect 26 1 24 0;
#X connect 27 0 26 1;
#X coords 0 523 1 522 350 80 0;
