#N canvas 321 110 1303 938 10;
#X obj 50 252 soundfiler;
#X obj 110 188 \$0;
#X obj 138 187 loadbang;
#X obj 50 188 pack s 0;
#X text 48 122 load file to array;
#X obj 50 143 loadbang;
#X obj 48 17 table sampler-\$0-sample-array-1;
#X obj 248 18 table sampler-\$0-sample-array-2;
#X obj 494 676 tabread4~ sampler-\$0-sample-array-1;
#X text 1105 63 speed / reverse;
#X obj 1106 127 sel 0;
#X msg 1106 150 1;
#X floatatom 1106 173 5 0 0 0 - - -;
#X floatatom 1106 218 5 0 0 0 - - -;
#X obj 50 326 f;
#X obj 50 358 /;
#X obj 77 326 r \$0-srate;
#X obj 77 349 bng 15 250 50 0 empty empty empty 17 7 0 10 -262144 -1
-1;
#X obj 50 405 s \$0-totaldur-msec;
#X obj 50 381 * 1000;
#X floatatom 939 271 10 0 0 0 - - -;
#X obj 939 246 min;
#X obj 939 188 f;
#X obj 939 152 sel 0;
#X floatatom 939 223 5 0 0 0 - - -;
#X text 940 65 loop dur;
#X obj 769 539 r \$0-totaldur-msec;
#X obj 813 138 s \$0-offset-msec;
#X obj 884 540 r \$0-offset-msec;
#X obj 769 564 -;
#X obj 884 563 bng 15 250 50 0 empty empty empty 17 7 0 10 -262144
-1 -1;
#X obj 769 601 s \$0-maxdur-msec;
#X obj 965 246 r \$0-maxdur-msec;
#X obj 939 293 s \$0-loopdur-msec;
#X obj 1106 243 s \$0-inc-msec;
#X obj 966 189 r \$0-totaldur-msec;
#X floatatom 892 596 5 0 0 0 - - -;
#X obj 939 87 r pd-dsp-started;
#X obj 813 92 r pd-dsp-started;
#X obj 1106 83 r pd-dsp-started;
#X obj 1106 195 * 20;
#X obj 1004 536 r \$0-loopdur-msec;
#X obj 1118 536 r \$0-offset-msec;
#X obj 1004 559 +;
#X obj 1004 582 s \$0-loopend-msec;
#X obj 495 278 phasor~;
#X obj 495 84 r \$0-loopdur-msec;
#X obj 1142 197 s \$0-speed;
#X obj 609 84 r \$0-speed;
#X obj 494 395 *~;
#X obj 547 334 r \$0-loopdur-msec;
#X obj 494 471 +~;
#X text 568 466 add offset;
#X text 598 374 scale to loopdur;
#X obj 526 579 samplerate~;
#X obj 526 557 r pd-dsp-started;
#X obj 526 602 / 1000;
#X text 603 583 msec->samples;
#X obj 574 601 s \$0-srate;
#X obj 495 625 *~;
#X msg 546 260 0;
#X obj 609 107 * 1000;
#X msg 50 210 read -resize \$1 sampler-\$2-sample-array-1 sampler-\$2-sample-array-2
;
#X obj 739 677 tabread4~ sampler-\$0-sample-array-2;
#X obj 1118 559 bng 15 250 50 0 empty empty empty 17 7 0 10 -262144
-1 -1;
#X obj 53 499 s \$0-switched-on;
#X obj 546 188 r \$0-switched-on;
#X obj 526 624 sig~;
#X obj 739 850 *~;
#X text 259 432 the great mystic windowing formula:;
#X obj 494 849 *~;
#X obj 218 456 expr~ min((abs($v1-.5)*-2+1)*($v2/20) \, 1);
#X obj 218 479 s~ \$0-window;
#X obj 508 828 r~ \$0-window;
#X obj 755 824 r~ \$0-window;
#X obj 739 799 *~;
#X obj 704 98 loadbang;
#X msg 704 144 \$1 10;
#X obj 704 167 line~;
#X obj 494 798 *~;
#X obj 704 190 s~ \$0-volume;
#X obj 539 795 r~ \$0-volume;
#X obj 776 798 r~ \$0-volume;
#X text 708 75 volume;
#X obj 495 313 expr~ abs($v1);
#X obj 495 134 /;
#X obj 495 206 /;
#X obj 495 252 line~;
#X obj 495 157 t b f;
#X msg 495 180 1;
#X obj 524 423 r \$0-offset-msec;
#X obj 642 443 bng 15 250 50 0 empty empty empty 17 7 0 10 -262144
-1 -1;
#X obj 642 466 s \$0-offset-changed;
#X obj 334 659 r \$0-offset-changed;
#X obj 334 705 vline~;
#X msg 334 682 0 10 \, 1 10 10;
#X obj 247 663 loadbang;
#X msg 247 686 1;
#X obj 487 744 *~;
#X obj 740 747 *~;
#X obj 524 446 pipe 10;
#X obj 524 469 sig~;
#X obj 525 109 bng 15 250 50 0 empty empty empty 17 7 0 10 -262144
-1 -1;
#X text 58 52 Args: path / vol / start offset / loop dur / speed;
#X obj 547 357 pipe 10;
#X obj 454 109 pipe 10;
#X msg 495 229 \$1 10;
#X obj 548 402 sig~;
#X obj 50 166 symbol \$2;
#X obj 704 121 rorf \$3;
#X obj 813 115 rorf \$4;
#X obj 939 121 rorf \$5;
#X obj 1106 104 rorf \$6;
#X text 822 64 offset;
#X obj 495 889 pandaswitch~;
#X obj 107 279 unpack f f f;
#X obj 107 302 s \$0-file-srate;
#X text 205 302 TODO!;
#X obj 176 325 s \$0-num-channels;
#X obj 1045 669 r \$0-num-channels;
#X obj 1045 692 sel 1;
#X obj 1045 715 f \$0;
#X text 1059 645 mono?;
#X obj 607 856 r \$0-switched-on;
#X obj 738 897 pandaswitch~;
#X obj 564 913 switch~;
#X obj 53 476 item \$1;
#X msg 1045 743 set sampler-\$1-sample-array-1;
#X obj 620 953 pandac~ \$1;
#X obj 546 211 sel 1;
#X obj 490 926 outlet~;
#X obj 738 920 outlet~;
#X connect 0 0 14 0;
#X connect 0 1 115 0;
#X connect 1 0 3 1;
#X connect 2 0 1 0;
#X connect 3 0 62 0;
#X connect 5 0 108 0;
#X connect 8 0 98 1;
#X connect 10 0 11 0;
#X connect 10 1 12 0;
#X connect 11 0 12 0;
#X connect 12 0 40 0;
#X connect 12 0 47 0;
#X connect 13 0 34 0;
#X connect 14 0 15 0;
#X connect 15 0 19 0;
#X connect 16 0 15 1;
#X connect 16 0 17 0;
#X connect 17 0 14 0;
#X connect 19 0 18 0;
#X connect 20 0 33 0;
#X connect 21 0 20 0;
#X connect 22 0 24 0;
#X connect 23 0 22 0;
#X connect 23 1 24 0;
#X connect 24 0 21 0;
#X connect 26 0 29 0;
#X connect 28 0 29 1;
#X connect 28 0 30 0;
#X connect 29 0 31 0;
#X connect 29 0 36 0;
#X connect 30 0 29 0;
#X connect 32 0 21 1;
#X connect 35 0 22 1;
#X connect 37 0 111 0;
#X connect 38 0 110 0;
#X connect 39 0 112 0;
#X connect 40 0 13 0;
#X connect 41 0 43 0;
#X connect 42 0 43 1;
#X connect 42 0 64 0;
#X connect 43 0 44 0;
#X connect 45 0 71 0;
#X connect 45 0 84 0;
#X connect 46 0 105 0;
#X connect 48 0 61 0;
#X connect 49 0 51 0;
#X connect 50 0 104 0;
#X connect 50 0 91 0;
#X connect 51 0 59 0;
#X connect 54 0 56 0;
#X connect 54 0 58 0;
#X connect 55 0 54 0;
#X connect 56 0 67 0;
#X connect 59 0 8 0;
#X connect 59 0 63 0;
#X connect 60 0 45 1;
#X connect 61 0 85 1;
#X connect 61 0 102 0;
#X connect 62 0 0 0;
#X connect 63 0 99 1;
#X connect 64 0 43 0;
#X connect 66 0 129 0;
#X connect 67 0 59 1;
#X connect 68 0 124 0;
#X connect 70 0 114 0;
#X connect 71 0 72 0;
#X connect 73 0 70 1;
#X connect 74 0 68 1;
#X connect 75 0 68 0;
#X connect 76 0 109 0;
#X connect 77 0 78 0;
#X connect 78 0 80 0;
#X connect 79 0 70 0;
#X connect 81 0 79 1;
#X connect 82 0 75 1;
#X connect 84 0 49 0;
#X connect 85 0 88 0;
#X connect 86 0 106 0;
#X connect 87 0 45 0;
#X connect 88 0 89 0;
#X connect 88 1 86 1;
#X connect 89 0 86 0;
#X connect 90 0 91 0;
#X connect 90 0 100 0;
#X connect 91 0 92 0;
#X connect 93 0 95 0;
#X connect 94 0 98 0;
#X connect 94 0 99 0;
#X connect 95 0 94 0;
#X connect 96 0 97 0;
#X connect 97 0 94 0;
#X connect 98 0 79 0;
#X connect 99 0 75 0;
#X connect 100 0 101 0;
#X connect 101 0 51 1;
#X connect 102 0 85 0;
#X connect 104 0 107 0;
#X connect 105 0 85 0;
#X connect 106 0 87 0;
#X connect 107 0 49 1;
#X connect 107 0 71 1;
#X connect 108 0 3 0;
#X connect 109 0 77 0;
#X connect 110 0 27 0;
#X connect 111 0 23 0;
#X connect 112 0 10 0;
#X connect 114 0 128 0;
#X connect 114 0 130 0;
#X connect 114 1 125 0;
#X connect 115 0 116 0;
#X connect 115 2 118 0;
#X connect 119 0 120 0;
#X connect 120 0 121 0;
#X connect 121 0 127 0;
#X connect 123 0 114 1;
#X connect 123 0 124 1;
#X connect 124 0 128 1;
#X connect 124 0 131 0;
#X connect 126 0 65 0;
#X connect 127 0 63 0;
#X connect 129 0 60 0;
