#N canvas 988 109 584 662 12;
#X obj 40 21 item \$1;
#X text 189 49 Args: freq \, vol \, pan (-1 to 1);
#X obj 39 121 rorf \$2;
#X obj 123 118 rorf \$3;
#X obj 39 86 r pd-dsp-started;
#X obj 39 146 s \$0-freq;
#X obj 123 143 s \$0-vol;
#X obj 207 144 s \$0-pan;
#X obj 49 280 osc~;
#X obj 50 382 *~;
#X obj 51 464 pandaswitch~;
#X obj 132 496 switch~;
#X obj 51 415 *~;
#X text 10 382 vol;
#X text 10 416 pan;
#X obj 243 464 pandaswitch~;
#X obj 243 415 *~;
#X obj 48 203 r \$0-freq;
#X msg 48 228 \$1 10;
#X obj 48 253 line~;
#X obj 107 324 r \$0-vol;
#X obj 107 374 line~;
#X obj 189 376 line~;
#X obj 280 374 line~;
#X obj 217 222 r \$0-pan;
#X obj 207 119 rorf \$4;
#X obj 280 256 + 1;
#X obj 280 281 clip 0 1;
#X obj 189 252 - 1;
#X obj 189 277 abs;
#X obj 189 302 clip 0 1;
#X msg 280 349 \$1 25;
#X msg 189 351 \$1 25;
#X msg 107 349 \$1 25;
#X obj 91 537 s~ \$1-1;
#X obj 265 533 s~ \$1-2;
#X obj 157 531 pandac~ \$1;
#X obj 49 305 >~ 0;
#X obj 49 330 -~ 0.5;
#X obj 49 355 *~ 2;
#X obj 11 527 dac~;
#X obj 40 46 s \$0-active;
#X obj 132 438 r \$0-active;
#X obj 324 438 r \$0-active;
#X connect 0 0 41 0;
#X connect 2 0 5 0;
#X connect 3 0 6 0;
#X connect 4 0 2 0;
#X connect 4 0 3 0;
#X connect 4 0 25 0;
#X connect 8 0 37 0;
#X connect 9 0 12 0;
#X connect 9 0 16 0;
#X connect 10 0 34 0;
#X connect 10 0 36 0;
#X connect 10 1 11 0;
#X connect 12 0 10 0;
#X connect 15 0 35 0;
#X connect 15 0 36 1;
#X connect 16 0 15 0;
#X connect 17 0 18 0;
#X connect 18 0 19 0;
#X connect 19 0 8 0;
#X connect 20 0 33 0;
#X connect 21 0 9 1;
#X connect 22 0 12 1;
#X connect 23 0 16 1;
#X connect 24 0 26 0;
#X connect 24 0 28 0;
#X connect 25 0 7 0;
#X connect 26 0 27 0;
#X connect 27 0 31 0;
#X connect 28 0 29 0;
#X connect 29 0 30 0;
#X connect 30 0 32 0;
#X connect 31 0 23 0;
#X connect 32 0 22 0;
#X connect 33 0 21 0;
#X connect 37 0 38 0;
#X connect 38 0 39 0;
#X connect 39 0 9 0;
#X connect 42 0 10 1;
#X connect 43 0 15 1;
